<?xml version="1.0" standalone="no"?>
<!DOCTYPE svg PUBLIC "-//W3C//DTD SVG 1.1//EN" "http://www.w3.org/Graphics/SVG/1.1/DTD/svg11.dtd" >
<svg xmlns="http://www.w3.org/2000/svg">
<metadata></metadata>
<defs>
<font id="ethos_regularregular" horiz-adv-x="530" >
<font-face units-per-em="1000" ascent="750" descent="-250" />
<missing-glyph horiz-adv-x="265" />
<glyph unicode="&#xfb01;" horiz-adv-x="592" d="M305 683q82 0 126.5 -24t44.5 -68q0 -47 -44 -47q-18 0 -29 10t-11 25q0 7 3 13t3 12q0 9 -4.5 18.5t-25 20t-54.5 10.5q-61 0 -88.5 -28t-27.5 -98v-49h236q10 0 15.5 -1t14.5 -5.5t13.5 -17t4.5 -32.5v-335q0 -28 13.5 -42.5t57.5 -14.5q5 0 5 -15t-5 -15h-218 q-6 0 -6 15t6 15q33 0 45.5 14.5t12.5 42.5v360h-111q-53 0 -68.5 -14.5t-15.5 -41.5v-304q0 -26 12 -41.5t49 -15.5q6 0 6 -15t-6 -15h-222q-6 0 -6 15t6 15q43 0 57.5 14t14.5 43v360h-65q-5 0 -5 16q0 15 6 15h19q51 0 52 58q4 147 189 147z" />
<glyph unicode="&#xfb02;" horiz-adv-x="623" d="M317 683q203 0 203 -131v-466q0 -27 13.5 -41.5t56.5 -14.5q6 0 6 -15t-6 -15h-121q-36 0 -36 59v493q0 55 -34 78t-82 23q-65 0 -92 -31t-27 -108v-36h116q6 0 6 -15q0 -17 -6 -17h-33q-37 0 -56 -8t-23 -18.5t-4 -30.5v-303q0 -17 2.5 -27t16.5 -19.5t41 -9.5 q7 0 7 -15t-7 -15h-221q-6 0 -6 15t6 15q24 0 39 4.5t21.5 14t8.5 17.5t2 21v359h-64q-5 0 -5 16t5 16h20q30 0 40.5 15t11.5 42q6 148 201 148z" />
<glyph horiz-adv-x="0" />
<glyph horiz-adv-x="333" />
<glyph unicode=" "  horiz-adv-x="265" />
<glyph unicode="&#x09;" horiz-adv-x="265" />
<glyph unicode="&#xa0;" horiz-adv-x="265" />
<glyph unicode="!" horiz-adv-x="263" d="M94 213v460q0 6 38 6t38 -6v-460q0 -6 -38 -6t-38 6zM132 -10q-58 0 -58 56t59 56q56 0 56 -57q0 -55 -57 -55z" />
<glyph unicode="&#x22;" horiz-adv-x="335" d="M74 500v175q0 6 31 6q30 0 30 -6v-175q0 -6 -31 -6q-30 0 -30 6zM201 500v175q0 6 30 6t30 -6v-175q0 -6 -30 -6t-30 6z" />
<glyph unicode="#" horiz-adv-x="641" d="M599 478q7 0 3 -30q-6 -29 -12 -29h-110l-29 -165h111q6 0 1 -30q-3 -29 -11 -29h-110q-31 -189 -33 -194q-1 -7 -36 -7h-15t-11 1t-7 2t-2 3l32 195h-83q-40 0 -55 -15t-20 -42l-23 -138q-1 -6 -38 -6h-13t-11 1t-7.5 2t-2.5 3l33 195h-109q-7 0 -2 29q6 30 12 30h108 l28 165h-107q-8 0 -2 29q4 30 11 30h108q32 190 33 195q1 6 36 6h13.5t10.5 -0.5t8.5 -2t2.5 -3.5l-33 -195h84q39 0 55 15t20 43q7 39 23 137q1 6 38 6h12t10.5 -0.5t9 -2t2.5 -3.5l-32 -195h109zM389 312l19 107h-83q-40 0 -55.5 -15.5t-19.5 -41.5l-20 -108h84 q29 0 46 10t21.5 20.5t7.5 27.5z" />
<glyph unicode="$" horiz-adv-x="540" d="M305 386q87 -44 137.5 -96.5t50.5 -124.5q0 -53 -19.5 -90.5t-51.5 -54.5t-60 -23.5t-57 -6.5v-58q0 -7 -29 -7q-30 0 -30 7v58q-62 0 -127.5 22t-65.5 58v101q0 5 15 5q14 0 14 -5q0 -68 53.5 -106.5t110.5 -41.5v289q-88 42 -133 86.5t-45 115.5q0 48 16.5 82.5 t44 52.5t56.5 25.5t61 7.5v59q0 7 30 7q29 0 29 -7v-59q55 0 106 -22.5t51 -58.5v-69q0 -5 -15 -5q-14 0 -14 5q0 46 -42.5 80.5t-85.5 37.5v-264zM305 26q105 25 105 127q0 34 -25.5 63t-79.5 61v-251zM246 421v225q-98 -23 -98 -110q0 -34 24.5 -60.5t73.5 -54.5z" />
<glyph unicode="%" horiz-adv-x="681" d="M179 686q65 0 102.5 -33t37.5 -120q0 -46 -12.5 -77.5t-35 -46.5t-45 -20.5t-50.5 -5.5t-50 5t-45 19.5t-36 47t-13 80.5q0 47 13 79t36.5 46.5t46 20t51.5 5.5zM509 295q65 0 102.5 -32.5t37.5 -120.5q0 -46 -12.5 -77.5t-35.5 -46t-45.5 -20t-50.5 -5.5t-49.5 5 t-44.5 19.5t-36 46.5t-13 80q0 47 13 79t36.5 46.5t46 20t51.5 5.5zM172 -7h-16t-12.5 1t-8.5 2t-2 3q2 2 165 338t165 338q2 6 39 6h15.5t12.5 -1t9 -2t2 -3l-329 -676q-2 -6 -40 -6zM505 22q33 0 47 23.5t14 100.5q0 76 -12.5 98t-44.5 22q-33 0 -48.5 -22.5t-15.5 -95.5 q0 -78 13.5 -102t46.5 -24zM175 413q34 0 47.5 23t13.5 100q0 76 -12.5 98t-44.5 22q-33 0 -48.5 -22.5t-15.5 -95.5q0 -78 13.5 -101.5t46.5 -23.5z" />
<glyph unicode="&#x26;" horiz-adv-x="604" d="M548 0h-106q-25 0 -44 21q-55 -31 -120 -31q-26 0 -45.5 1t-46 5.5t-46 13t-40 23.5t-33.5 36t-21.5 53t-8.5 72q0 34 8 66t20 53.5t24 38t20 24.5l8 8l-11 16.5t-18 45.5t-11 73q0 43 11.5 74.5t28 48.5t42.5 26.5t47 12t49 2.5q81 0 122 -23t41 -59v-75q0 -5 -17 -5 q-16 0 -16 5q0 44 -30.5 81t-94.5 37q-102 0 -102 -119q0 -29 8 -55.5t26 -55t26.5 -39.5t31.5 -39t85 -108t82 -104l16 33v93q0 16 -3 27t-17.5 20.5t-41.5 9.5q-5 0 -5 14q0 15 5 15q2 0 98 0.5t97 0.5q6 0 6 -16q0 -14 -6 -14q-27 0 -42 -9.5t-18 -20t-3 -27.5v-103 q-17 -42 -46 -75q17 -22 36 -32.5t55 -10.5q6 0 6 -14q0 -15 -6 -15zM368 59l-212 268q-32 -39 -32 -133q0 -56 15 -92t42 -50.5t47.5 -18.5t49.5 -4q24 0 46.5 7.5t33.5 15.5z" />
<glyph unicode="'" horiz-adv-x="219" d="M79 500v175q0 6 31 6q30 0 30 -6v-175q0 -6 -30 -6q-31 0 -31 6z" />
<glyph unicode="(" horiz-adv-x="289" d="M191 -74q-29 0 -35 7q-92 122 -92 404q0 279 93 403q4 7 34 7q16 0 26 -2t8 -5q-34 -40 -52 -125t-18 -278q0 -191 17.5 -277t52.5 -127q3 -3 -9 -5q-9 -2 -25 -2z" />
<glyph unicode=")" horiz-adv-x="289" d="M99 -74q-36 1 -34 7q35 41 52 127t17 277q0 193 -17.5 277.5t-51.5 125.5q-4 4 14 6q9 1 20 1q29 0 34 -7q93 -124 93 -403q0 -282 -92 -404q-6 -7 -35 -7z" />
<glyph unicode="*" horiz-adv-x="513" d="M257 683q29 0 29 -6v-81q0 -5 6.5 -9.5t12.5 -3.5l81 25q4 1 8 -6t8 -19q8 -27 2 -28q-12 -6 -82 -26q-5 -2 -8 -9t1 -12l51 -66q3 -4 -20 -22q-24 -15 -27 -10q-2 2 -25.5 32.5t-25.5 32.5q-3 5 -11.5 5t-11.5 -5q-5 -6 -24.5 -32t-26.5 -34q-3 -5 -27 12q-23 16 -20 21 l51 66q4 5 1 12t-9 9q-5 2 -41.5 13.5t-40.5 12.5q-6 1 3 28q3 8 4.5 11.5t3.5 7.5t3.5 5.5t3.5 0.5l83 -25q5 -2 12 3t7 10v81q0 6 29 6z" />
<glyph unicode="+" horiz-adv-x="511" d="M225 277h-160q-7 0 -7 30t7 30h160v152q0 6 31 6q30 0 30 -6v-152h160q7 0 7 -30t-7 -30h-160v-151q0 -6 -30 -6q-31 0 -31 6v151z" />
<glyph unicode="," horiz-adv-x="217" d="M109 106q30 0 45 -18t15 -66q0 -34 -20.5 -75t-35.5 -60.5t-22 -26.5q-3 -4 -23 3q-8 3 -14 6.5t-5 5.5q5 5 15.5 21t21 46.5t4.5 53.5q-40 10 -40 55q0 55 59 55z" />
<glyph unicode="-" horiz-adv-x="365" d="M317 276h-268q-7 0 -7 30t7 30h268q6 0 6 -30t-6 -30z" />
<glyph unicode="." horiz-adv-x="214" d="M107 -9q-55 0 -55 54q0 53 57 53q53 0 53 -54q0 -53 -55 -53z" />
<glyph unicode="/" horiz-adv-x="420" d="M85 -4q-3 -6 -40 -6h-15t-12.5 1t-8.5 2t-2 3l328 676q2 6 40 6h15.5t12.5 -0.5t9.5 -2t1.5 -3.5t-82.5 -169.5t-163.5 -336t-83 -170.5z" />
<glyph unicode="0" horiz-adv-x="570" d="M287 683q25 0 45.5 -2t46.5 -10.5t45.5 -22.5t39.5 -40.5t33 -62t21 -89t8 -120.5t-8.5 -121t-21.5 -89.5t-33.5 -61.5t-40 -40t-45.5 -22t-45.5 -10t-44.5 -2q-38 0 -66 4.5t-63.5 24.5t-58.5 55.5t-39 102.5t-16 159q0 67 8.5 121t22 90t34 62t40.5 40t46.5 22t46.5 10 t45 2zM287 32q27 0 44.5 4.5t36.5 22t30 49.5t18.5 89.5t7.5 138.5q0 100 -9.5 163.5t-30 93.5t-42 39.5t-55.5 9.5q-27 0 -45 -5t-37.5 -23t-31 -50t-19 -89t-7.5 -138t8 -139t20 -90t32 -49.5t37.5 -22t42.5 -4.5z" />
<glyph unicode="1" horiz-adv-x="407" d="M353 0h-261q-6 0 -6 15t6 15q52 0 67.5 14t15.5 43v451h-111q-6 0 -6 16t6 16q19 0 43 5.5t50 16t43.5 32t17.5 49.5q0 6 26 6t26 -6v-586q0 -29 16 -43t67 -14q6 0 6 -15t-6 -15z" />
<glyph unicode="2" horiz-adv-x="528" d="M453 0h-411q-7 0 -10.5 6t2.5 12q120 137 167 196q178 222 178 294q0 40 -12.5 68t-34 41t-41 18t-41.5 5q-63 0 -103 -35.5t-40 -78.5q0 -5 -14 -5q-15 0 -15 5v75q0 35 50 58.5t126 23.5q210 0 210 -182q0 -40 -38 -110t-101.5 -152t-86 -110t-49.5 -59q-5 -4 -2 -10.5 t12 -6.5h173q21 0 32.5 2.5t24.5 17.5t20 44q1 6 15 6q16 0 15 -6q0 -3 -7.5 -53.5t-8.5 -55.5q0 -8 -10 -8z" />
<glyph unicode="3" horiz-adv-x="526" d="M254 -12q-93 0 -144.5 22t-51.5 58v97q0 5 16 5q15 0 15 -5q0 -26 6 -46.5t22 -41.5t51 -32.5t86 -11.5q24 0 43 5t38.5 18.5t30.5 42.5t11 72q0 51 -10 84.5t-29.5 48t-37 19t-43.5 4.5h-55q-6 0 -6 22q0 23 6 23h55q21 0 36 4t31.5 17t25 43.5t8.5 76.5q0 43 -8.5 70.5 t-26.5 39t-33 14.5t-38 3q-70 0 -109 -38.5t-39 -77.5q0 -5 -15 -5t-15 5v75q0 34 47.5 58t130.5 24q29 0 51.5 -2.5t51.5 -12.5t48 -27.5t32 -50.5t13 -78q0 -114 -76 -149q-6 -2 -5.5 -6.5t6.5 -6.5q95 -40 95 -181q0 -179 -214 -179z" />
<glyph unicode="4" horiz-adv-x="542" d="M503 240q6 0 6 -33t-6 -33h-109v-87q0 -18 4 -28.5t23 -19.5t56 -9q6 0 6 -15t-6 -15h-254q-6 0 -6 15t6 15q53 0 68 14.5t15 42.5v87h-274q-5 0 -7.5 4t0.5 9q1 1 140.5 242.5t141.5 243.5q4 6 43 6q44 0 44 -6v-433h109zM306 240v341q0 7 -4 8t-7 -5l-185 -323 q-4 -7 1 -14t13 -7h182z" />
<glyph unicode="5" horiz-adv-x="497" d="M240 -10q-92 0 -142 21t-50 59v91q0 6 16 6q15 0 15 -6q0 -126 161 -126q25 0 43 5t36.5 20.5t28.5 49.5t10 86q0 56 -7.5 91.5t-23.5 51.5t-33 21t-44 5q-33 0 -78 -9t-70 -16.5t-32 -10.5q-4 -1 -8.5 1.5t-3.5 6.5q0 2 13 157t13 162q2 17 19 17h297q11 0 12 -10 l17 -111q1 -6 -15 -6q-14 0 -16 6q-10 43 -29 56t-49 13h-96q-25 0 -42 -5.5t-25 -16.5t-10.5 -19.5t-3.5 -20.5l-13 -139q-1 -5 3.5 -9t9.5 -3q68 19 107 19q33 0 56 -3t52.5 -16t47.5 -37t31 -69t13 -108q0 -55 -15 -94.5t-35.5 -60t-52 -32.5t-54.5 -14.5t-53 -2.5z" />
<glyph unicode="6" horiz-adv-x="534" d="M273 420q35 0 59 -2.5t55.5 -14.5t51 -33.5t33.5 -62.5t14 -99q0 -56 -12.5 -96.5t-31 -63.5t-47.5 -36.5t-56 -17.5t-62 -4q-45 0 -74 5t-61.5 25t-51 56t-30.5 101.5t-12 158.5t15 159.5t36 102.5t56 55.5t64 24.5t70 5q62 0 108.5 -18.5t46.5 -47.5v-85q0 -6 -16 -6 q-15 0 -15 6q0 51 -33 79.5t-91 28.5q-48 0 -75 -17.5t-45 -73t-22 -158.5q-1 -7 4.5 -9.5t10.5 1.5q56 37 111 37zM277 32q22 0 34.5 1.5t30 10.5t27 26.5t16.5 51t7 82.5q0 63 -9 101.5t-29 54t-36 19t-45 3.5q-63 0 -128 -56q0 -123 15.5 -188.5t42 -85.5t74.5 -20z" />
<glyph unicode="7" horiz-adv-x="491" d="M126 -6q-8 0 -15.5 0.5t-14 1t-10 1.5t-2.5 3l294 602q3 6 -2 13t-13 7h-205q-35 0 -51.5 -13t-27.5 -53q-1 -6 -15 -6q-16 0 -15 6q1 3 8.5 54.5t7.5 54.5q2 8 11 8h397q6 0 10 -6t1 -11q-37 -72 -159.5 -332t-155.5 -325q-5 -5 -43 -5z" />
<glyph unicode="8" horiz-adv-x="517" d="M383 345q86 -48 86 -167q0 -188 -211 -188q-21 0 -39 2t-44.5 8t-47 19t-39.5 33t-29.5 53t-10.5 75q0 121 88 165q5 3 5.5 8.5t-4.5 8.5q-73 45 -73 148q0 173 198 173q191 0 191 -175q0 -102 -70 -145q-5 -3 -5 -8.5t5 -9.5zM262 647q-20 0 -35 -3.5t-34 -15t-29.5 -41 t-10.5 -74.5q0 -47 9.5 -77.5t27 -43.5t33 -17t37.5 -4t36.5 4t31.5 16.5t26 42.5t9 77q0 45 -9.5 74.5t-26.5 42t-31 16t-34 3.5zM258 32q23 0 40.5 4.5t38 18t31.5 46t11 82.5q0 154 -119 154q-20 0 -38 -5.5t-38.5 -19.5t-33 -47t-12.5 -81q0 -50 11 -82.5t31 -46.5 t37.5 -18.5t40.5 -4.5z" />
<glyph unicode="9" horiz-adv-x="525" d="M253 683q36 0 60.5 -3.5t53 -14.5t46.5 -34t34 -60.5t23.5 -96t7.5 -137.5q0 -93 -14 -159.5t-35 -102.5t-55.5 -55.5t-64 -24.5t-72.5 -5q-67 0 -117 18t-50 48v85q0 6 15 6q16 0 16 -6q0 -53 36.5 -78.5t99.5 -25.5q49 0 76.5 17.5t44.5 72.5t21 159q0 7 -5.5 10 t-10.5 -1q-52 -38 -112 -38q-33 0 -56.5 2.5t-53.5 14.5t-48.5 33.5t-31.5 62t-13 96.5t12 96.5t30 63.5t46.5 36t55 17t61.5 4zM253 295q14 0 26.5 2t24.5 6.5l20 7.5t18.5 10.5l14 10t13.5 10.5l10 9q0 119 -13 182.5t-39.5 87t-74.5 23.5q-27 0 -43 -4t-34 -20t-26 -53 t-8 -97t8 -97t25.5 -53t34 -20.5t43.5 -4.5z" />
<glyph unicode=":" horiz-adv-x="232" d="M116 330q-55 0 -55 53t57 53q53 0 53 -54q0 -52 -55 -52zM116 -8q-55 0 -55 54q0 52 57 52q53 0 53 -53t-55 -53z" />
<glyph unicode=";" horiz-adv-x="239" d="M119 330q-55 0 -55 53t56 53q54 0 54 -54q0 -52 -55 -52zM120 95q29 0 43.5 -17.5t14.5 -62.5q0 -32 -19.5 -71.5t-34 -57.5t-21.5 -25q-2 -4 -22 3q-9 3 -14.5 6t-3.5 5l5 8q6 8 12.5 19t13.5 27t9 31t-1 31q-38 8 -38 51q0 53 56 53z" />
<glyph unicode="&#x3c;" horiz-adv-x="491" d="M443 142q-1 -45 -8 -44q-2 1 -189.5 113.5t-190.5 114.5q-16 10 0 21l379 225q2 1 3 0t2 -5t1 -9.5v-14.5q0 -30 -5 -34l-250 -144q-7 -4 -6.5 -12.5t7.5 -12.5l249 -145q8 -6 8 -53z" />
<glyph unicode="=" horiz-adv-x="511" d="M446 199h-381q-7 0 -7 30t7 30h381q6 0 6 -30t-6 -30zM446 355h-381q-7 0 -7 30t7 30h381q6 0 6 -30t-6 -30z" />
<glyph unicode="&#x3e;" horiz-adv-x="491" d="M48 142q0 47 8 53l249 145q7 4 7.5 12.5t-5.5 12.5l-251 144q-6 5 -6 34q2 29 6 29l380 -225q16 -11 0 -21q-4 -2 -189.5 -113.5t-190.5 -114.5q-6 -4 -7 18z" />
<glyph unicode="?" horiz-adv-x="420" d="M176 -10q-55 0 -55 52t56 52q53 0 53 -52t-54 -52zM170 182q-35 0 -35 5q0 55 18 99.5t43.5 73t51.5 53.5t44 53t18 58q0 62 -30.5 90.5t-76.5 28.5q-60 0 -92.5 -34t-32.5 -83q0 -6 -17 -6t-17 6v74q0 36 42.5 59.5t119.5 23.5q187 0 187 -165q0 -36 -19.5 -68 t-47.5 -58t-55.5 -54t-47 -66.5t-19.5 -84.5q0 -5 -34 -5z" />
<glyph unicode="@" horiz-adv-x="730" d="M371 -10q-41 0 -80.5 7t-87 29t-82 58t-58.5 101.5t-24 151.5q0 79 21 141.5t54.5 100t78.5 62t89 33.5t91 9q42 0 80.5 -5.5t83.5 -23.5t78 -46.5t55 -80.5t22 -121q0 -61 -15.5 -109t-36.5 -73.5t-47 -42t-42.5 -21t-27.5 -4.5h-39q-15 0 -22.5 7.5t-8.5 28.5 q-34 -44 -100 -44q-33 0 -59 8t-51 28t-38.5 61.5t-13.5 102.5q0 198 165 198q47 0 85 -32q11 -6 14 5q5 20 29 20h39v-336q6 0 16 4.5t25 18.5t28 35t22 59t9 86q0 56 -16 99.5t-41 69t-59.5 41.5t-66.5 21.5t-67 5.5q-53 0 -98.5 -17t-83 -52t-59 -96t-21.5 -141 q0 -84 23.5 -145.5t63.5 -94.5t83 -48.5t90 -15.5q59 0 126.5 21t96.5 36t40 22q2 2 4 -4t2 -18q0 -20 -5 -23q-9 -7 -39 -22t-96.5 -35t-128.5 -20zM353 172q45 0 72.5 37.5t27.5 137.5v124q-5 6 -13.5 14.5t-34 22.5t-49.5 14q-41 0 -65 -35.5t-24 -141.5q0 -56 7 -92 t20.5 -53t26.5 -22.5t32 -5.5z" />
<glyph unicode="A" horiz-adv-x="693" d="M21 0q-7 0 -7 15q0 14 7 14q70 0 93 54q7 19 67 166.5t116.5 285t56.5 139.5q2 4 7 4q6 0 8 -4l215 -593q19 -52 88 -52q6 0 6 -14q0 -15 -6 -15h-255q-6 0 -6 15q0 14 6 14q39 0 56.5 12t7.5 42l-38 112h-158q-39 0 -62 -9t-30 -18t-14 -26l-24 -60q-10 -29 6.5 -41 t54.5 -12q7 0 7 -14q0 -15 -7 -15h-195zM212 227h141q43 0 57 13t4 41q-5 14 -24.5 71t-35 102.5t-17.5 49.5q-2 7 -7.5 7t-7.5 -6z" />
<glyph unicode="B" horiz-adv-x="619" d="M40 30q48 0 66 12t18 41v503q0 32 -17 44.5t-67 12.5q-6 0 -6 15t6 15h298q93 0 149.5 -43t56.5 -129q0 -34 -9 -61.5t-21.5 -43.5t-27 -27.5t-24 -16t-13.5 -5.5h-1l4 -1q5 -2 11.5 -4.5t15.5 -7t18.5 -11.5t19.5 -15.5t18.5 -21.5t15.5 -28t11 -35t4 -42 q0 -95 -59 -138t-156 -43h-311q-6 0 -6 15t6 15zM262 33h53q84 0 118.5 39t34.5 109q0 148 -142 148h-29q-46 0 -62.5 -14.5t-16.5 -43.5v-182q0 -56 44 -56zM218 584v-223h86q75 0 110 34t35 106t-33.5 106t-107.5 34h-46q-44 0 -44 -57z" />
<glyph unicode="C" horiz-adv-x="624" d="M342 -11q-41 0 -74 5t-75 25.5t-70 55.5t-47.5 102t-19.5 158q0 92 20 159t48 102t70 55.5t74.5 25.5t73.5 5q88 0 149.5 -21.5t61.5 -56.5v-103q0 -6 -15 -6q-14 0 -14 6q0 42 -18 73t-47 46.5t-58.5 22.5t-58.5 7q-26 0 -46 -3.5t-47.5 -21.5t-45.5 -49.5t-31.5 -93 t-13.5 -147.5q0 -71 11.5 -125.5t29.5 -86.5t43 -52t49 -27t51 -7q75 0 124.5 29.5t63.5 113.5q0 4 20 4h5.5t7 -0.5t5.5 -1.5t2 -2q-21 -191 -228 -191z" />
<glyph unicode="D" horiz-adv-x="681" d="M38 29q49 0 65.5 14t16.5 43q0 5 0.5 243.5t0.5 256.5q0 30 -17.5 43.5t-65.5 13.5q-6 0 -6 15t6 15h308q34 0 63 -4.5t63 -16t60.5 -35.5t49 -60t34.5 -92.5t12 -128.5q0 -86 -18.5 -149.5t-45.5 -98.5t-67.5 -55.5t-74.5 -26.5t-76 -6h-308q-6 0 -6 15q0 14 6 14z M215 583v-494q0 -31 10.5 -44.5t34.5 -13.5h86q29 0 51.5 5.5t48 24.5t42.5 51t28 89t11 135t-11 135t-28 89t-42 51t-48 24.5t-52 5.5h-86q-45 0 -45 -58z" />
<glyph unicode="E" horiz-adv-x="590" d="M45 30q47 0 65 13t18 44v500q0 32 -18.5 44.5t-64.5 12.5q-6 0 -6 14q0 15 6 15h449q9 0 9 -7l17 -126q0 -6 -15 -6q-13 0 -15 6q-13 59 -30.5 80.5t-48.5 21.5h-144q-23 0 -33.5 -13t-10.5 -45v-218h148q31 0 45.5 16t14.5 56q0 6 15 6t15 -6v-176q0 -6 -15 -6t-15 6 q0 41 -14 56.5t-46 15.5h-88q-33 0 -46.5 -15.5t-13.5 -62.5v-166q0 -58 43 -58h154q31 0 47.5 22.5t30.5 78.5q1 6 15 6q16 0 16 -6l-17 -125q-2 -8 -10 -8h-457q-6 0 -6 15t6 15z" />
<glyph unicode="F" horiz-adv-x="565" d="M47 29q49 0 66.5 14t17.5 44v500q0 29 -16.5 42.5t-67.5 13.5q-6 0 -6 15t6 15h449q8 0 10 -8q0 -3 7.5 -63t8.5 -62q0 -2 -2.5 -3.5t-6 -2t-7.5 -0.5q-14 0 -15 6q-14 62 -32 81.5t-45 19.5h-145q-23 0 -33.5 -13t-10.5 -44v-218h148q30 0 45 15t15 57q0 6 15 6 q16 0 16 -6v-177q0 -6 -16 -6q-15 0 -15 6q0 43 -15.5 58t-44.5 15h-88q-31 0 -45.5 -15t-14.5 -64v-168q0 -28 16.5 -43t66.5 -15q6 0 6 -14q0 -15 -6 -15h-261q-6 0 -6 15q0 14 6 14z" />
<glyph unicode="G" horiz-adv-x="688" d="M353 -11q-28 0 -50.5 2t-54.5 9.5t-57 21.5t-51.5 40t-44 61.5t-28.5 89.5t-11 122t11.5 122t29 90t44.5 62t52 39.5t57 21.5t54 10t49 2q85 0 152.5 -22t67.5 -58v-102q0 -5 -16 -5q-14 0 -14 5q0 69 -55.5 109.5t-134.5 40.5q-31 0 -56 -6t-52 -25.5t-45 -52.5t-30 -92 t-12 -139q0 -79 14 -138t34 -91t48.5 -51t51 -24.5t47.5 -5.5q45 0 80.5 9.5t48.5 19.5l14 10v172q0 30 -13.5 43.5t-49.5 13.5q-6 0 -6 15q0 14 6 14h213q5 0 5 -14q0 -15 -5 -15q-35 0 -49.5 -13.5t-14.5 -43.5v-170l-8.5 -8.5t-25.5 -18.5t-44 -23t-64.5 -18.5 t-86.5 -8.5z" />
<glyph unicode="H" horiz-adv-x="731" d="M40 29q44 0 63.5 12.5t19.5 45.5v500q0 29 -17 42.5t-66 13.5q-5 0 -5 15t5 15h261q6 0 6 -15t-5 -15q-49 0 -66.5 -12.5t-17.5 -43.5v-221h211q38 0 57 8.5t23 19t4 29.5v164q0 30 -17.5 43t-66.5 13q-5 0 -5 15t5 15h262q6 0 6 -15t-6 -15q-49 0 -66 -13.5t-17 -42.5 v-500q0 -30 16 -44t67 -14q6 0 6 -14q0 -15 -6 -15h-262q-5 0 -5 15q0 14 5 14q49 0 66.5 13.5t17.5 44.5v248h-211q-54 0 -69 -14t-15 -43v-191q0 -29 16.5 -43.5t67.5 -14.5q5 0 5 -14q0 -15 -5 -15h-262q-5 0 -5 15q0 14 5 14z" />
<glyph unicode="I" horiz-adv-x="347" d="M43 29q50 0 66.5 14t16.5 44v500q0 17 -4.5 28t-23.5 19.5t-55 8.5q-6 0 -6 15t6 15h261q5 0 5 -15t-5 -15q-49 0 -66.5 -13.5t-17.5 -42.5v-500q0 -13 2.5 -21.5t10 -18t25.5 -14t46 -4.5q5 0 5 -14q0 -15 -5 -15h-261q-6 0 -6 15q0 14 6 14z" />
<glyph unicode="J" horiz-adv-x="353" d="M11 -67q-6 0 -6 15q0 17 6 17q26 0 38 0.5t29.5 4.5t25.5 12.5t17 23t12 38.5t3 58v485q0 17 -4 27t-23.5 19.5t-56.5 9.5q-6 0 -6 15t6 15h262q5 0 5 -15t-5 -15q-51 0 -67.5 -13.5t-16.5 -42.5v-485q0 -35 -8.5 -62.5t-21 -45t-33 -30t-37 -18.5t-41.5 -9t-37.5 -3.5 t-33.5 -0.5h-7z" />
<glyph unicode="K" horiz-adv-x="696" d="M44 29q46 0 63.5 13.5t17.5 44.5v500q0 29 -16.5 42.5t-64.5 13.5q-6 0 -6 15t6 15h256q6 0 6 -15t-6 -15q-48 0 -64 -14t-16 -42v-219h24q42 0 73 17t62 63l96 141q20 23 10.5 38.5t-59.5 15.5q-6 0 -6 15t6 15h202q6 0 6 -15t-6 -15q-67 0 -104 -55q-36 -52 -99 -145 q-39 -59 -78 -78q36 -6 64.5 -25.5t55.5 -68.5q16 -30 53 -100.5t44 -83.5q20 -35 35 -45q20 -13 55 -13q7 0 7 -14q0 -15 -7 -15h-110q-13 0 -28.5 6t-20.5 18q-2 3 -30.5 58.5t-57.5 110.5t-38 71q-15 27 -27 42.5t-28 22t-26 7.5t-34 1h-34v-250q0 -29 16.5 -43.5 t63.5 -14.5q6 0 6 -13q0 -16 -6 -16h-256q-6 0 -6 15q0 14 6 14z" />
<glyph unicode="L" horiz-adv-x="552" d="M495 0h-450q-6 0 -6 15q0 14 6 14q52 0 67.5 15t15.5 43q0 55 0.5 249t0.5 251q0 28 -16 42t-68 14q-6 0 -6 15t6 15h262q5 0 5 -15t-5 -15q-37 0 -56.5 -9t-23.5 -19t-4 -28v-498q0 -13 2 -21.5t9.5 -17.5t25.5 -13.5t47 -4.5h105q29 0 46.5 21t30.5 81q1 5 16 5t15 -5 q-1 -3 -8.5 -62.5t-7.5 -63.5q-2 -8 -9 -8z" />
<glyph unicode="M" horiz-adv-x="876" d="M37 30q47 0 64 14t18 42q3 57 13 249t14 251q0 13 -1 21t-8 17.5t-24 14t-44 4.5q-6 0 -6 15t6 15h177q10 0 12 -7l181 -455q3 -7 8.5 -7t8.5 7q21 51 91.5 228t91.5 228q4 6 12 6h160q6 0 6 -15t-6 -15q-41 0 -54 -14t-13 -43q1 -26 7.5 -254t6.5 -245q1 -29 16 -43 t64 -14q6 0 6 -15t-6 -15h-258q-6 0 -6 15t6 15q50 0 66.5 13.5t16.5 42.5q0 22 -5 258.5t-5 238.5q0 5 -1.5 7t-3.5 0t-3 -6l-210 -533q-1 -4 -18 -4q-18 0 -19 4l-209 537q-2 10 -7 4l-2 -7q0 -9 -11.5 -244.5t-12.5 -254.5q-1 -27 14 -41.5t67 -14.5q6 0 6 -15t-6 -15 h-200q-6 0 -6 15t6 15z" />
<glyph unicode="N" horiz-adv-x="720" d="M42 30q50 0 65.5 14t15.5 43v500q0 28 -16.5 42t-64.5 14q-5 0 -5 15t5 15h150q13 0 16 -5l343 -492q4 -6 8.5 -5t4.5 8v408q0 28 -16.5 42t-65.5 14q-6 0 -6 15t6 15h200q6 0 6 -14q0 -16 -6 -16q-52 0 -67 -14.5t-15 -42.5v-592q0 -4 -14 -4q-12 0 -15 4l-397 568 q-2 4 -5.5 5t-5.5 -1t-2 -7v-472q0 -13 2 -21t9.5 -17.5t25 -14t44.5 -4.5q6 0 6 -15t-6 -15h-200q-5 0 -5 15t5 15z" />
<glyph unicode="O" horiz-adv-x="683" d="M343 681q40 0 71 -4t73.5 -24t70.5 -54.5t48.5 -102.5t20.5 -161q0 -68 -11 -123t-27.5 -90.5t-42 -61.5t-48.5 -39.5t-54 -21.5t-52.5 -9.5t-48.5 -1.5t-48 1.5t-52 9.5t-55 21.5t-49.5 39.5t-42.5 61.5t-28 90.5t-11 123t11 123t27.5 90.5t42 61t49 39t55 21.5 t52.5 9.5t49 1.5zM343 20q27 0 47 3.5t47.5 21.5t45 49.5t30 93t12.5 147.5q0 71 -8 126t-23.5 88t-32 54.5t-39.5 31t-40 12.5t-39 3t-39 -3t-40 -12.5t-40 -31t-32.5 -54.5t-24 -88t-8.5 -126q0 -85 13.5 -146.5t32 -93t46.5 -49.5t47.5 -22t44.5 -4z" />
<glyph unicode="P" horiz-adv-x="594" d="M43 30q37 0 56 8t23 18.5t4 30.5v499q0 19 -4 29.5t-23 19t-56 8.5q-6 0 -6 15t6 15h298q217 0 217 -184q0 -185 -212 -185h-42q-29 0 -46.5 -4t-25 -13t-9.5 -17.5t-2 -22.5v-159q0 -20 4 -30.5t23 -19t56 -8.5q6 0 6 -15t-6 -15h-261q-6 0 -6 15t6 15zM221 336h87 q50 0 83.5 14.5t48 40t19 47.5t4.5 51q0 30 -4.5 52.5t-18.5 47.5t-46 38.5t-81 13.5h-47q-45 0 -45 -57v-248z" />
<glyph unicode="Q" horiz-adv-x="689" d="M698 30q7 0 7 -15t-7 -15h-17q-57 0 -82 1t-51 7.5t-38 20.5q-64 -41 -169 -41q-41 0 -73 4.5t-75 24.5t-71 54.5t-48.5 102t-20.5 160.5t20.5 160.5t49 102.5t71.5 55t74.5 24.5t72.5 4.5q40 0 71.5 -4.5t73.5 -24.5t70 -55t48 -102.5t20 -160.5q0 -75 -13 -134t-27 -81 l-13 -22q24 -31 49 -47t39.5 -18t38.5 -2zM341 19q18 0 31 1.5t33 8t34.5 18.5t31 35.5t26.5 55.5t17 82.5t7 113.5t-7 113.5t-17.5 82.5t-26.5 55.5t-31 35.5t-35 18.5t-32.5 8t-30.5 1.5q-26 0 -45 -3t-48 -20.5t-47 -48.5t-31.5 -93.5t-13.5 -149.5q0 -73 9 -129 t26 -88.5t34.5 -54t41.5 -30t39 -11t35 -2.5z" />
<glyph unicode="R" horiz-adv-x="648" d="M44 30q29 0 46.5 4t25 13t9.5 17.5t2 22.5v500q0 14 -2 22t-9.5 17.5t-25 13.5t-46.5 4q-6 0 -6 14q0 15 6 15h298q216 0 216 -183q0 -159 -161 -181q44 -16 73 -79l69 -143q9 -19 17 -29.5t26 -19t46 -8.5q6 0 6 -15t-6 -15h-108q-38 0 -48 22l-93 203q-24 52 -48.5 66 t-65.5 14h-44v-218q0 -14 2 -22.5t9.5 -17.5t25.5 -13t47 -4q6 0 6 -15t-6 -15h-261q-6 0 -6 15t6 15zM308 337q41 0 71 10.5t46 25t25 37t11 40t2 40.5t-2 40.5t-11 39.5t-24.5 36.5t-44.5 24.5t-69 10h-46q-19 0 -29.5 -9.5t-12.5 -20.5t-2 -27l-1 -247h87z" />
<glyph unicode="S" horiz-adv-x="538" d="M273 -12q-75 0 -146.5 20.5t-71.5 59.5v101q0 5 15 5q14 0 14 -5q0 -66 55 -107.5t132 -41.5q18 0 34.5 2.5t37 11t35 22.5t24.5 38.5t10 56.5q0 41 -39 78t-126 82q-95 49 -136.5 90.5t-41.5 110.5q0 45 15 78t36 50t53 27t55 12t53 2q69 0 126 -22t57 -61v-68 q0 -6 -15 -6q-14 0 -14 6q0 43 -43 81t-107 38q-19 0 -38.5 -4t-43 -15t-38.5 -36t-15 -60q0 -41 40.5 -76.5t119.5 -74.5q185 -93 185 -220q0 -55 -20 -92t-55.5 -54t-69.5 -23t-77 -6z" />
<glyph unicode="T" horiz-adv-x="581" d="M419 0h-261q-5 0 -5 15t5 15q28 0 46 4.5t25.5 14t9.5 17.5t2 21v475q0 28 -4.5 45t-14 24t-17.5 8.5t-23 1.5h-49q-28 0 -45.5 -19.5t-32.5 -81.5q-1 -6 -15 -6q-16 0 -15 6q0 3 7.5 62.5t8.5 62.5q2 8 10 8h479q8 0 10 -7q0 -3 7.5 -63.5t7.5 -62.5q1 -6 -14 -6t-16 6 q-13 60 -31 80.5t-47 20.5h-51q-14 0 -22.5 -2t-18.5 -9t-14.5 -24t-4.5 -44v-475q0 -13 2 -21t9.5 -17.5t25 -14t46.5 -4.5q6 0 6 -15t-6 -15z" />
<glyph unicode="U" horiz-adv-x="715" d="M36 644q-5 0 -5 14q0 15 5 15h260q7 0 7 -15q0 -14 -7 -14q-38 0 -57 -7.5t-22.5 -17t-3.5 -27.5v-398q0 -52 15 -87t42 -50t50.5 -20t54.5 -5q35 0 62 5.5t57.5 21t47.5 50.5t17 88v395q0 18 -3 27t-22 17t-58 8q-6 0 -6 14q0 15 6 15h203q6 0 6 -15q0 -14 -6 -14 q-39 0 -58 -8t-22.5 -17t-3.5 -27v-396q0 -56 -17 -96.5t-39.5 -61t-57.5 -32t-59.5 -14t-56.5 -2.5q-23 0 -41.5 1t-45.5 5.5t-47 13t-42.5 24t-36.5 37t-23.5 55t-9.5 74.5v392q0 18 -3 27t-22 17t-58 8z" />
<glyph unicode="V" horiz-adv-x="687" d="M21 643q-6 0 -6 15t6 15h253q6 0 6 -15t-6 -15q-38 0 -55 -9t-14.5 -21.5t6.5 -25.5l154 -422q2 -6 8.5 -6t9.5 7l158 421q3 14 5.5 26.5t-14 21t-53.5 8.5q-5 0 -5 15t5 15h190q6 0 6 -15t-6 -15q-30 0 -49.5 -10t-26 -19.5t-13.5 -26.5l-223 -593q-1 -4 -15 -4 q-12 0 -15 4l-217 593q-7 17 -14 27t-26.5 19.5t-48.5 9.5z" />
<glyph unicode="W" horiz-adv-x="946" d="M31 643q-6 0 -6 15t6 15h249q6 0 6 -15t-6 -15q-38 0 -55.5 -9t-16.5 -21.5t3 -25.5q6 -21 59 -202.5t54 -187.5q2 -7 7.5 -6.5t8.5 6.5q13 34 70.5 193.5t76.5 208.5q1 4 15 4t16 -3q1 -2 73.5 -196.5t74.5 -199.5q2 -7 8.5 -7t8.5 7l115 383q3 13 4.5 25.5t-16.5 21.5 t-56 9q-6 0 -6 15t6 15h188q6 0 6 -15t-6 -15q-22 0 -37.5 -4.5t-24.5 -14t-12.5 -17t-7.5 -20.5q-18 -58 -87.5 -292.5t-90.5 -300.5q-3 -4 -12 -4q-10 0 -11 4l-154 443q-2 7 -8 7t-9 -7q-2 -5 -79.5 -223t-77.5 -220q-2 -4 -12 -4q-11 0 -12 4q-18 60 -84.5 293 t-86.5 300q-9 28 -25 42t-56 14z" />
<glyph unicode="X" horiz-adv-x="673" d="M225 0h-207q-5 0 -5 15t5 15q80 0 117 57l167 244q-127 225 -145 256q-15 27 -38 41.5t-67 14.5q-6 0 -6 15t6 15h261q7 0 7 -15t-7 -15q-29 0 -44 -5t-16.5 -15t0.5 -17t9 -19q5 -9 25 -44t39.5 -68.5t20.5 -36.5q4 -7 12.5 -7t13.5 7l102 149q8 11 11.5 19.5t2 17.5 t-16 14t-42.5 5q-6 0 -6 15t6 15h202q5 0 5 -15t-5 -15q-75 0 -114 -56l-139 -205q150 -264 167 -295q16 -27 39 -42t66 -15q6 0 6 -15t-6 -15h-262q-5 0 -5 15t5 15q28 0 43.5 4.5t18 14t0.5 18t-9 20.5l-108 189q-4 6 -13 6.5t-14 -6.5l-127 -189q-8 -12 -11.5 -20 t-2.5 -17.5t16 -14.5t43 -5q7 0 7 -15t-7 -15z" />
<glyph unicode="Y" horiz-adv-x="639" d="M451 0h-261q-5 0 -5 16q0 14 5 14q29 0 47 4.5t25.5 14t9.5 17.5t2 21v206q-139 262 -156 294q-29 57 -101 57q-7 0 -7 14q0 15 7 15h255q6 0 6 -15q0 -14 -6 -14q-34 0 -48 -9.5t-12 -20.5t11 -27l121 -225q3 -7 10.5 -7t11.5 7l120 225q17 24 8 40.5t-56 16.5 q-6 0 -6 14q0 15 6 15h188q6 0 6 -15q0 -14 -6 -14q-44 0 -65.5 -15t-35.5 -42q-21 -37 -80 -150t-77 -144v-206q0 -17 4 -27.5t23.5 -20t55.5 -9.5q6 0 6 -14q0 -16 -6 -16z" />
<glyph unicode="Z" horiz-adv-x="570" d="M506 0h-450q-9 0 -13.5 7t0.5 13l369 600q4 7 -0.5 14t-12.5 7h-199q-13 0 -21.5 -2.5t-19.5 -11.5t-20.5 -31t-17.5 -56q0 -6 -14 -6q-15 0 -15 6q14 112 16 125q1 8 10 8h404q7 0 12.5 -7t1.5 -12q-45 -66 -186.5 -304t-182.5 -299q-5 -4 -1 -11.5t13 -7.5h246 q27 0 45 20t32 81q1 6 15 6q2 0 5.5 -0.5t6.5 -2t3 -3.5q0 -3 -7.5 -62t-8.5 -63q-1 -8 -10 -8z" />
<glyph unicode="[" horiz-adv-x="319" d="M276 -192h-191v865h191q6 0 6 -15t-6 -15q-34 0 -55.5 -4.5t-30 -14t-11 -17.5t-2.5 -20v-692q0 -12 2.5 -20t11 -17.5t30 -14.5t55.5 -5q6 0 6 -15t-6 -15z" />
<glyph unicode="\" horiz-adv-x="420" d="M335 -4q-1 2 -83 170.5t-163.5 336t-82.5 169.5t2 3.5t10 2t12.5 0.5h15.5q37 0 39 -6l329 -676q1 -2 -2 -3t-8.5 -2t-12.5 -1h-15q-38 0 -41 6z" />
<glyph unicode="]" horiz-adv-x="319" d="M234 673v-865h-191q-6 0 -6 15t6 15q34 0 55.5 5t30 14.5t11 17.5t2.5 20v692q0 12 -2.5 20t-11 17.5t-30 14t-55.5 4.5q-6 0 -6 15t6 15h191z" />
<glyph unicode="^" d="M61 328q-45 2 -45 9l241 346q4 7 10.5 7t11.5 -6t121 -175t117 -172q2 -4 -10 -5l-19 -1q-32 0 -36 6l-154 221q-5 6 -14 5.5t-14 -6.5q-17 -23 -75 -107t-80 -114q-5 -8 -54 -8z" />
<glyph unicode="_" horiz-adv-x="531" d="M500 -126h-469q-6 0 -6 30q0 29 6 29h469q6 0 6 -30q0 -29 -6 -29z" />
<glyph unicode="`" d="M260 542l-103 141q-4 4 21 22q25 16 28 12l103 -141q4 -5 -21 -22q-12 -8 -19.5 -11.5t-8.5 -0.5z" />
<glyph unicode="a" horiz-adv-x="507" d="M487 30q7 0 7 -15t-7 -15h-117q-18 0 -28.5 8.5t-10.5 36.5q-38 -53 -114 -53q-177 0 -177 137q0 149 201 149h7q38 0 57 9t22.5 19.5t3.5 29.5v12q0 110 -95 110q-46 0 -67.5 -18.5t-21.5 -38.5q0 -3 1 -11t1 -12q0 -24 -14.5 -34t-29.5 -10q-9 0 -17.5 3.5t-17 16.5 t-8.5 34q0 34 44 66.5t130 32.5q29 0 56 -5t57 -18.5t48.5 -43t18.5 -72.5v-261q0 -27 13.5 -42t57.5 -15zM217 34q12 0 21.5 1.5t24.5 7t25.5 19t21 34t16 55.5t5.5 81v16h-90q-66 0 -89 -31t-23 -87q0 -30 10 -51t26 -29.5t28 -12t24 -3.5z" />
<glyph unicode="b" horiz-adv-x="557" d="M308 488q27 0 48 -3t52.5 -17t53 -38.5t37 -73t15.5 -115.5t-15 -116t-35 -74t-51 -39t-52.5 -17t-49.5 -3q-84 0 -124 53q0 -45 -39 -45h-120q-6 0 -6 15t6 15q24 0 39.5 4.5t22 14t8.5 18t2 20.5v499q0 12 -2 20.5t-8 18t-21.5 14.5t-40.5 5q-6 0 -6 14q0 15 6 15h159 v-212q0 -8 6 -11t13 2q54 36 102 36zM311 22q17 0 29 2.5t28.5 14.5t26.5 33.5t17.5 63.5t7.5 100q0 60 -7.5 103t-18.5 65.5t-27.5 35t-29 15.5t-29.5 3q-57 0 -121 -62q0 -13 -0.5 -72t-0.5 -95q0 -57 9.5 -98t22.5 -61.5t32.5 -32t32 -13.5t28.5 -2z" />
<glyph unicode="c" horiz-adv-x="469" d="M264 -13q-27 0 -49.5 3t-55.5 17t-55.5 39t-39 74t-16.5 116q0 48 8 86.5t20.5 64t31 44t36.5 29t41 16.5t39.5 7.5t36.5 1.5q54 0 104.5 -17t50.5 -49v-85q0 -5 -16 -5q-15 0 -15 5q0 57 -35 89t-89 32q-18 0 -31.5 -3t-31 -15.5t-29 -34.5t-19.5 -64t-8 -99 q0 -70 11 -115.5t31.5 -65t38 -25.5t41.5 -6q108 0 125 110q0 4 20 4t20 -4q-21 -150 -165 -150z" />
<glyph unicode="d" horiz-adv-x="554" d="M529 29q6 0 6 -14q0 -15 -6 -15h-119q-11 0 -18.5 2.5t-14 13t-6.5 29.5q-43 -54 -125 -54q-28 0 -50.5 3.5t-53 18t-50.5 39.5t-34.5 73.5t-14.5 114.5q0 55 9.5 97.5t27 68t37 43t45 25.5t45 10.5t42.5 2.5q53 0 103 -36q5 -5 12 -1.5t7 11.5v125q0 17 -3.5 28t-20 20 t-47.5 9q-6 0 -6 15t6 15h158v-587q0 -13 2 -21t8.5 -17.5t21.5 -14t39 -4.5zM246 21q23 0 41.5 6.5t39.5 26.5t32.5 66.5t11.5 116.5v159q-67 62 -122 62q-17 0 -29.5 -3t-29 -16t-27.5 -35.5t-18.5 -65.5t-7.5 -102q0 -71 9.5 -117.5t28 -66t34 -25.5t37.5 -6z" />
<glyph unicode="e" horiz-adv-x="497" d="M260 27q54 0 89 21.5t53 87.5q1 5 21 5h6.5t7 -0.5t6.5 -1.5t1 -3q-15 -63 -43.5 -97t-60 -43t-80.5 -9q-218 0 -218 249q0 64 14.5 111.5t35 73t51 41t55.5 19.5t55 4q39 0 69 -8.5t61.5 -32t50.5 -75.5t21 -130h-236q-48 0 -66.5 -13.5t-15.5 -43.5q8 -95 39 -125 t84 -30zM135 270h226q-4 76 -20 118.5t-36.5 55t-51.5 12.5q-51 0 -82 -38.5t-36 -147.5z" />
<glyph unicode="f" horiz-adv-x="338" d="M269 0h-232q-5 0 -5 15t5 15q24 0 39.5 5t21.5 14.5t8 17.5t2 20v360h-63q-6 0 -6 16q0 15 6 15h19q52 0 52 53q0 48 15 81t40 47t45 19t42 5q26 0 49 -4.5t44.5 -21.5t21.5 -46q0 -26 -13 -36.5t-30 -10.5q-16 0 -28 9.5t-12 25.5q0 6 2.5 13t2.5 12q0 29 -28 29 q-42 0 -55.5 -30.5t-13.5 -103.5v-41h117q5 0 5 -15q0 -16 -6 -16h-33q-28 0 -46 -4.5t-25.5 -13.5t-9.5 -17t-2 -22v-303q0 -12 2 -20.5t8.5 -18t21.5 -14t39 -4.5q7 0 7 -15t-7 -15z" />
<glyph unicode="g" horiz-adv-x="526" d="M488 478q6 0 6 -16t-6 -16q-30 0 -46 -4t-19 -14.5t-1.5 -16.5t6.5 -22q9 -25 9 -55q0 -25 -6.5 -47.5t-24.5 -47.5t-58 -39.5t-98 -14.5q-94 0 -94 -50q0 -43 99 -43q121 0 171.5 -34.5t50.5 -109.5q0 -70 -58 -107.5t-167 -37.5q-110 0 -165.5 33t-55.5 104 q0 88 70 123q12 5 6 16q-13 26 -13 51q0 44 43 63q11 6 -1 14q-73 40 -73 129q0 73 49.5 112t141.5 39q21 0 40 -2.5t28 -4.5l8 -2h158zM255 26q-73 0 -114 -17.5t-41 -68.5q0 -101 151 -101q146 0 146 100q0 50 -34.5 68.5t-107.5 18.5zM249 214q100 0 100 124 q0 119 -95 119q-45 0 -74.5 -27.5t-29.5 -90.5q0 -125 99 -125z" />
<glyph unicode="h" horiz-adv-x="583" d="M254 0h-224q-6 0 -6 15t6 15q24 0 39 5t21 14.5t7.5 17t1.5 20.5v500q0 13 -1.5 20.5t-8 17t-21.5 14.5t-40 5q-5 0 -5 14q0 15 5 15h162v-215q0 -6 6.5 -8.5t11.5 0.5q44 37 106 37q171 0 171 -152v-248q0 -13 1.5 -21t7.5 -17.5t20 -14t37 -4.5q6 0 6 -15t-6 -15h-220 q-5 0 -5 15t5 15q21 0 35 4.5t20 14t7.5 17.5t1.5 21v236q0 43 -8 71.5t-22.5 40t-26.5 15t-29 3.5q-59 0 -119 -60v-306q0 -12 1.5 -19.5t7 -17.5t19.5 -15t36 -5q5 0 5 -15t-5 -15z" />
<glyph unicode="i" horiz-adv-x="303" d="M270 0h-229q-6 0 -6 16q0 14 6 14q23 0 38 4.5t21 14t8 18t2 20.5v305q0 13 -1.5 21t-8 17.5t-21.5 14t-40 4.5q-5 0 -5 14q0 15 5 15h160v-391q0 -13 2 -21.5t8.5 -17.5t21.5 -13.5t39 -4.5q6 0 6 -14q0 -16 -6 -16zM152 569q-57 0 -57 55q0 54 58 54q55 0 55 -55 q0 -54 -56 -54z" />
<glyph unicode="j" horiz-adv-x="290" d="M-12 -160h27q52 0 71.5 31.5t19.5 106.5v413q0 11 -2 19t-8 18t-22 15t-41 5q-6 0 -6 15t6 15h162v-500q0 -75 -42.5 -122.5t-131.5 -47.5h-33q-5 0 -5 16t5 16zM149 569q-57 0 -57 54q0 55 58 55q55 0 55 -55q0 -54 -56 -54z" />
<glyph unicode="k" horiz-adv-x="583" d="M260 0h-227q-6 0 -6 15t6 15q24 0 39 5t21 14.5t7.5 17.5t1.5 20v500q0 17 -2.5 27t-19.5 20t-49 10q-6 0 -6 14q0 15 6 15h162v-393q0 -7 5.5 -8.5t10.5 3.5l143 135q20 16 15.5 27.5t-45.5 11.5q-5 0 -5 14q0 15 5 15h197q5 0 5 -15q0 -14 -5 -14q-44 0 -67 -10 t-42 -28l-134 -127q53 0 84.5 -23.5t59.5 -73.5l53 -100q10 -19 14.5 -27t25 -19t51.5 -11q5 0 5 -15t-5 -15h-111q-37 0 -50 23q-30 65 -78 153q-19 36 -39 52t-49 16l-44 -43v-114q0 -13 1.5 -21t7.5 -17.5t20.5 -14t37.5 -4.5q6 0 6 -15t-6 -15z" />
<glyph unicode="l" horiz-adv-x="295" d="M264 0h-227q-6 0 -6 15t6 15q43 0 56 15t13 42v499q0 17 -3 27.5t-19.5 20t-48.5 9.5q-6 0 -6 15t6 15h159v-586q0 -12 1.5 -20t8 -17.5t21.5 -14.5t39 -5q5 0 5 -15t-5 -15z" />
<glyph unicode="m" horiz-adv-x="859" d="M263 0h-221q-5 0 -5 15q0 14 5 14q32 0 49 10t19.5 20.5t2.5 27.5v305q0 13 -2 21t-8.5 17t-21.5 13.5t-39 4.5q-5 0 -5 15t5 15h118q18 0 26.5 -7.5t11.5 -26.5q1 -5 4 -6t6 3q41 46 103 46q110 0 147 -62q8 -11 16 0q40 62 114 62q34 0 60.5 -5.5t52.5 -20.5t40 -47 t14 -79v-248q0 -18 3.5 -29t19 -20t44.5 -9q6 0 6 -14q0 -15 -6 -15h-220q-6 0 -6 15q0 14 6 14q39 0 51 15t12 43v236q0 38 -7.5 63.5t-21.5 36t-27 14t-30 3.5q-11 0 -20.5 -1.5t-17.5 -5t-14.5 -6t-12.5 -8.5t-10 -9.5t-9 -11t-7 -10t-6.5 -10.5t-5.5 -9q3 -12 3 -34 v-248q0 -18 3 -29t17.5 -20t42.5 -9q6 0 6 -14q0 -15 -6 -15h-217q-6 0 -6 15q0 14 6 14q21 0 35 4.5t20 14t7.5 18t1.5 21.5v236q0 39 -8 64.5t-22.5 36t-27 13.5t-29.5 3q-23 0 -40 -6.5t-29.5 -20t-18.5 -22t-15 -25.5v-279q0 -18 3.5 -29t18 -20t42.5 -9q5 0 5 -14 q0 -15 -5 -15z" />
<glyph unicode="n" horiz-adv-x="584" d="M264 0h-220q-6 0 -6 15t6 15q24 0 39 4.5t21.5 13.5t8.5 17.5t2 21.5v305q0 28 -14 42t-57 14q-6 0 -6 15t6 15h117q17 0 26.5 -7t11.5 -27q2 -13 11 -4q43 47 103 47q168 0 168 -152v-248q0 -13 2 -21.5t8 -17.5t19.5 -13.5t34.5 -4.5q6 0 6 -15t-6 -15h-217q-5 0 -5 15 t5 15q39 0 51 14.5t12 42.5v236q0 39 -8 64.5t-22.5 36t-26.5 13.5t-29 3q-23 0 -40.5 -6t-31 -21t-18 -21.5t-15.5 -24.5v-280q0 -18 3 -28.5t18 -19.5t43 -9q6 0 6 -15t-6 -15z" />
<glyph unicode="o" horiz-adv-x="503" d="M255 485q204 0 204 -251q0 -247 -208 -247q-207 0 -207 249t211 249zM251 17q17 0 30.5 3t30.5 16t28 35.5t18.5 65t7.5 101.5q0 73 -10 120.5t-29 67t-34.5 25t-37.5 5.5q-16 0 -28.5 -2.5t-31 -14.5t-30 -33.5t-20.5 -64t-9 -101.5t7.5 -101.5t18.5 -65.5t27.5 -36 t30 -16.5t31.5 -3.5z" />
<glyph unicode="p" horiz-adv-x="556" d="M311 487q29 0 52.5 -3.5t53.5 -18.5t49.5 -40.5t33.5 -73.5t14 -114q0 -55 -9.5 -97.5t-27 -68t-37 -43t-45 -25.5t-45 -10.5t-42.5 -2.5q-62 0 -102 36q-5 4 -13 1t-8 -11v-122q0 -27 14 -41.5t57 -14.5q6 0 6 -15t-6 -15h-229q-6 0 -6 15t6 15q24 0 39 4.5t21.5 13.5 t8.5 17t2 21v497q0 13 -2 21.5t-8.5 18t-21.5 14t-39 4.5q-6 0 -6 14q0 15 6 15h120q38 0 38 -45q45 54 126 54zM307 19q24 0 41.5 7.5t35 29t26.5 68.5t9 117q0 71 -9.5 117.5t-27 66t-33.5 26t-38 6.5q-25 0 -43.5 -7t-39 -27t-32 -67t-11.5 -117v-157q66 -63 122 -63z " />
<glyph unicode="q" horiz-adv-x="555" d="M528 -163q6 0 6 -14q0 -15 -6 -15h-229q-6 0 -6 15q0 14 6 14q43 0 57 15t14 43v122q0 8 -7.5 10.5t-12.5 -1.5q-48 -36 -102 -36q-23 0 -42.5 2.5t-45.5 10.5t-45.5 25.5t-37 43t-27 68t-9.5 97.5q0 65 14 113t34 73.5t49.5 40.5t53.5 19t53 4q82 0 125 -55 q0 28 10.5 37t27.5 9h120q6 0 6 -15t-6 -15q-24 0 -39 -4.5t-21.5 -13.5t-8.5 -17t-2 -21v-497q0 -13 2 -21.5t8.5 -17.5t21.5 -14t39 -5zM248 19q54 0 122 63v157q0 57 -8 98.5t-20 64t-30 35.5t-33 16.5t-34 3.5q-18 0 -30.5 -3t-28.5 -15.5t-26 -34.5t-17 -63.5t-7 -99.5 q0 -70 9.5 -117t27 -68.5t35 -29t40.5 -7.5z" />
<glyph unicode="r" horiz-adv-x="427" d="M267 0h-227q-5 0 -5 15t5 15q44 0 57.5 14.5t13.5 41.5v305q0 28 -13 43t-58 15q-5 0 -5 14q0 15 5 15h118q10 0 17.5 -2t14.5 -13.5t7 -32.5q43 57 125 57q43 0 70.5 -24.5t27.5 -58.5q0 -50 -45 -50q-20 0 -32.5 10.5t-12.5 26.5q0 7 3 15t3 13q0 10 -8 17.5t-20 7.5 q-111 0 -111 -195v-163q0 -13 2 -21t8.5 -17t21.5 -13.5t38 -4.5q6 0 6 -15t-6 -15z" />
<glyph unicode="s" horiz-adv-x="442" d="M223 -13q-61 0 -115.5 15.5t-54.5 38.5v85q0 6 15 6t15 -6q0 -39 35.5 -73.5t94.5 -34.5q104 0 104 86q0 27 -30.5 51.5t-91.5 53.5q-34 16 -53 27t-41 29t-32 40.5t-10 50.5q0 130 163 130q61 0 102 -16.5t41 -41.5v-64q0 -6 -15 -6q-14 0 -14 6q0 34 -28 62.5t-81 28.5 q-93 0 -93 -78q0 -27 29.5 -48.5t89.5 -50.5q63 -29 102.5 -65t39.5 -88q0 -44 -15 -73t-42.5 -42.5t-54 -18t-60.5 -4.5z" />
<glyph unicode="t" horiz-adv-x="329" d="M95 447h-64q-5 0 -5 15q0 16 5 16q48 0 76 33t28 103q0 4 26 4t26 -4v-136h116q5 0 5 -16q0 -15 -5 -15h-33q-29 0 -47 -4.5t-25 -14t-9 -17.5t-2 -22v-230q0 -78 18.5 -106t52.5 -28q21 0 49 7q2 0 3.5 -2.5t2 -6t0.5 -7.5q0 -14 -6 -16q-18 -9 -62 -9q-33 0 -56.5 5.5 t-46.5 22t-35 51.5t-12 89v288z" />
<glyph unicode="u" horiz-adv-x="582" d="M23 449q-6 0 -6 14q0 15 6 15h161v-320q0 -121 91 -121q42 0 76 30t34 103v221q0 13 -2 21t-8.5 17.5t-21.5 14.5t-39 5q-7 0 -7 14q0 15 7 15h160v-392q0 -12 2 -20.5t8.5 -17.5t21.5 -13.5t39 -4.5q6 0 6 -15t-5 -15h-122q-19 0 -29 9t-10 39q-40 -56 -134 -56 q-157 0 -157 166v233q0 13 -2 21.5t-8.5 17.5t-21.5 14t-39 5z" />
<glyph unicode="v" horiz-adv-x="518" d="M9 449q-6 0 -6 14q0 15 6 15h212q5 0 5 -15q0 -14 -5 -14q-20 0 -31 -4.5t-13 -14t-0.5 -17t6.5 -20.5l95 -255q3 -7 9.5 -7t8.5 7q3 7 48.5 123.5t51.5 132.5q6 18 7.5 27.5t-8 18.5t-34.5 9q-6 0 -6 14q0 15 6 15h151q6 0 6 -15q0 -14 -6 -14q-35 0 -52 -14.5 t-27 -41.5q-11 -31 -157 -399q-2 -4 -16 -4q-15 0 -16 4q-18 51 -84 216t-73 182q-12 29 -28.5 43t-49.5 14z" />
<glyph unicode="w" horiz-adv-x="757" d="M19 449q-6 0 -6 14q0 15 6 15h207q6 0 6 -15q0 -14 -6 -14q-37 0 -45 -16.5t3 -39.5q7 -21 35.5 -113.5t40.5 -125.5q2 -7 8.5 -7t9.5 7l111 257q2 4 19 4t18 -4l110 -256q2 -6 8.5 -6t9.5 7l78 237q11 23 3 39.5t-44 16.5q-5 0 -5 14q0 15 5 15h148q7 0 7 -15 q0 -14 -7 -14q-33 0 -48 -15t-23 -42l-131 -398q-1 -4 -15 -4q-12 0 -15 4q-14 32 -58.5 144t-58.5 144q-3 7 -10 6.5t-9 -7.5q-3 -6 -61 -144.5t-59 -142.5t-15 -4t-15 4l-130 398q-9 28 -24.5 42.5t-47.5 14.5z" />
<glyph unicode="x" horiz-adv-x="544" d="M42 449q-6 0 -6 15q0 14 6 14h211q6 0 6 -14q0 -15 -6 -15q-18 0 -27 -4.5t-8.5 -13.5t3.5 -16.5t10 -18.5l42 -68q5 -7 15 -6.5t15 6.5q1 1 54 70q19 21 17 36t-37 15q-6 0 -6 15q0 14 6 14h154q7 0 7 -14q0 -15 -7 -15q-35 0 -55.5 -13.5t-40.5 -38.5l-91 -118 q107 -170 122 -196q33 -53 88 -53q6 0 6 -14q0 -16 -6 -16h-216q-5 0 -5 16q0 14 5 14q37 0 40.5 16t-13.5 37q-22 38 -64 101q-5 7 -14 6.5t-15 -6.5l-78 -103q-9 -11 -13 -19t-3.5 -16t11 -12t32.5 -4q6 0 6 -14q0 -16 -6 -16h-162q-5 0 -5 16q0 14 5 14q56 0 96 53 l116 151q-81 130 -101 162q-31 53 -88 53z" />
<glyph unicode="y" horiz-adv-x="535" d="M20 448q-5 0 -5 15t5 15h212q5 0 5 -15t-5 -15q-26 0 -36.5 -8.5t-10 -19t6.5 -27.5q12 -33 46 -131t48 -133q2 -6 8.5 -6t9.5 7l103 263q13 23 6.5 39t-41.5 16q-5 0 -5 15t5 15h152q6 0 6 -15t-6 -15q-36 0 -53 -15t-27 -41l-203 -512q-13 -35 -36 -51t-45.5 -18.5 t-74.5 -2.5q-6 0 -6 21t6 21q29 0 43 1t32 5t28 14.5t17 27.5l39 102q-134 356 -147 391q-10 28 -27 42.5t-50 14.5z" />
<glyph unicode="z" horiz-adv-x="473" d="M393 0h-346q-6 0 -8.5 4t-0.5 8l266 418q4 5 0.5 11t-10.5 6h-125q-15 0 -23 -1.5t-18.5 -9t-18.5 -24.5t-15 -45q-1 -5 -15 -5q-16 0 -15 5q0 2 6.5 51.5t6.5 52.5q2 7 12 7h330q7 0 10 -4t-1 -8q-2 -3 -64.5 -102t-126.5 -199.5t-74 -113.5q-4 -6 0 -12.5t11 -6.5h138 q23 0 35 3.5t24 21.5t20 55q1 6 16 6q16 0 15 -6l-18 -103q-2 -9 -11 -9z" />
<glyph unicode="{" horiz-adv-x="356" d="M68 228q-4 0 -4 13t4 13q44 0 58.5 14t14.5 38q0 111 6.5 181.5t22 107t27 49t37.5 29.5q10 6 37 6q33 -1 31 -6q-28 -23 -41 -49t-21 -100t-8 -217q0 -43 -37 -62q-6 -6 1 -9q5 -2 11.5 -7.5t15.5 -20.5t9 -33q0 -144 8 -218.5t21 -100.5t42 -48q2 -1 -3 -3 q-10 -3 -29 -3q-27 0 -37 6q-26 18 -38.5 32t-27.5 50.5t-21 106t-6 178.5q0 25 -14.5 39t-58.5 14z" />
<glyph unicode="|" d="M235 -192v865q0 7 30 7t30 -7v-865q0 -7 -30 -7t-30 7z" />
<glyph unicode="}" horiz-adv-x="356" d="M288 228q-44 0 -58.5 -14t-14.5 -39q0 -109 -6 -178.5t-21 -106t-27.5 -50.5t-38.5 -32q-9 -6 -36 -6q-34 1 -32 6q28 22 41 48t21 101t8 218q0 18 9 33t16 20t12 8q2 2 2 5t-2 4q-37 25 -37 62q0 144 -7.5 217t-20.5 99.5t-42 49.5q-4 3 14 5q9 1 18 1q26 0 37 -6 q25 -17 36.5 -29.5t27 -49t22 -107t6.5 -181.5q0 -23 15 -37.5t58 -14.5q5 0 5 -13t-5 -13z" />
<glyph unicode="~" horiz-adv-x="543" d="M185 303q-33 0 -58 -12.5t-33.5 -22.5t-9.5 -15q-2 -5 -20 1q-8 3 -13 5.5t-4 4.5q1 3 4.5 11.5t14.5 23t25.5 27t39.5 22t54 9.5q46 0 94 -30t80 -30q68 0 101 49q2 5 20 0q8 -2 12.5 -5t3.5 -6q-1 -4 -4.5 -11t-14.5 -22.5t-25 -27.5t-39.5 -21.5t-54.5 -9.5 q-44 0 -89 30t-84 30z" />
<glyph unicode="&#xa1;" horiz-adv-x="263" d="M169 263v-460q0 -6 -38 -6q-37 0 -37 6v460q0 6 38 6q37 0 37 -6zM132 486q57 0 57 -56t-59 -56q-56 0 -56 57q0 55 58 55z" />
<glyph unicode="&#xa2;" horiz-adv-x="469" d="M409 141q20 0 20 -4q-10 -71 -44 -106t-91 -42v-83q0 -7 -31 -7q-29 0 -29 7v82q-186 16 -186 249t186 248v86q0 6 30 6t30 -6v-87q42 -4 82 -20t40 -44v-85q0 -6 -15 -6q-16 0 -16 6q0 46 -25 77t-66 39v-421q81 13 95 107q2 4 20 4zM234 31v421q-94 -21 -94 -212 q0 -189 94 -209z" />
<glyph unicode="&#xa3;" horiz-adv-x="540" d="M303 684q54 0 100.5 -17t46.5 -49v-85q0 -5 -16 -5q-15 0 -15 5q0 61 -33 90.5t-83 29.5q-44 0 -60 -32.5t-16 -106.5v-148h100q6 0 6 -30q0 -29 -6 -29h-27q-42 0 -57.5 -13t-15.5 -39v-166q0 -14 2.5 -22.5t10 -17.5t25 -13t45.5 -4h84q30 0 47 21t31 80q1 6 15 6 q16 0 15 -6q-1 -4 -8.5 -63t-7.5 -63q-1 -7 -9 -7h-422q-6 0 -6 15q0 14 6 14q52 0 67.5 14.5t15.5 43.5v220h-83q-7 0 -7 30q0 29 7 29h31q52 0 52 57v91q0 92 41.5 131t123.5 39z" />
<glyph unicode="&#xa5;" horiz-adv-x="640" d="M626 673q6 0 6 -15t-6 -15q-44 0 -66 -14.5t-36 -41.5l-82 -152h70q6 0 6 -30t-6 -30h-101l-40 -76h141q6 0 6 -30t-6 -30h-144v-152q0 -13 2 -21.5t9.5 -17.5t25.5 -13.5t46 -4.5q6 0 6 -15t-6 -15h-261q-5 0 -5 15t5 15q29 0 47 4.5t25.5 14t9.5 17.5t2 21v152h-143 q-7 0 -7 30t7 30h140l-41 76h-99q-7 0 -7 30t7 30h69l-82 152q-15 27 -37 41.5t-65 14.5q-6 0 -6 15t6 15h255q7 0 7 -15t-7 -15q-26 0 -40.5 -4.5t-16.5 -14t0 -17.5t9 -20q18 -32 62 -116.5t58 -109.5q4 -6 11.5 -6t11.5 7l120 225q17 23 7.5 39.5t-56.5 16.5q-5 0 -5 15 t5 15h189z" />
<glyph unicode="&#xa6;" d="M235 -192v385q0 7 30 7t30 -7v-385q0 -7 -30 -7t-30 7zM235 307v366q0 7 30 7t30 -7v-366q0 -7 -30 -7t-30 7z" />
<glyph unicode="&#xa7;" horiz-adv-x="437" d="M345 215q5 -4 12.5 -11t19.5 -30t12 -46q0 -42 -13.5 -70.5t-39 -42.5t-53.5 -19.5t-65 -5.5q-64 0 -117 15.5t-53 37.5v85q0 6 15 6q14 0 14 -6q0 -48 39.5 -78t90.5 -30q105 0 105 87q0 48 -122 104q-30 14 -49 25t-41.5 29t-33.5 41t-11 52q0 74 46 105h1h-1 q-46 37 -46 91q0 129 162 129q57 0 100 -15t43 -42v-64q0 -5 -15 -5q-14 0 -14 5q0 39 -30.5 65.5t-77.5 26.5q-93 0 -93 -78q0 -47 118 -99q141 -62 141 -153q0 -37 -11 -64.5t-22 -35.5zM296 251q20 17 20 55q0 20 -19.5 40t-40.5 32t-58.5 30.5t-48.5 24.5 q-23 -18 -23 -57q0 -20 18 -38.5t39 -29.5t58 -29t55 -28z" />
<glyph unicode="&#xa8;" d="M163 571q-55 0 -55 54q0 52 57 52q53 0 53 -53t-55 -53zM368 571q-56 0 -56 54q0 52 57 52q53 0 53 -53t-54 -53z" />
<glyph unicode="&#xa9;" horiz-adv-x="620" d="M310 683q109 0 185.5 -72.5t76.5 -175.5t-76.5 -176t-185.5 -73t-185.5 73t-76.5 176t76.5 175.5t185.5 72.5zM310 218q95 0 162.5 63.5t67.5 153.5q0 89 -67.5 152.5t-162.5 63.5t-162.5 -63.5t-67.5 -152.5q0 -90 67.5 -153.5t162.5 -63.5zM410 373q13 0 13 -3 q-13 -98 -106 -98q-18 0 -33 2t-36.5 11.5t-36 25.5t-25 48t-10.5 76q0 162 139 162q35 0 67.5 -11t32.5 -32v-56q0 -3 -10 -3t-10 3q0 37 -22.5 58t-57.5 21q-15 0 -26 -4t-24.5 -17t-20.5 -43t-7 -76q0 -45 7 -75t20 -42.5t24.5 -16.5t27.5 -4q78 0 78 71q0 3 16 3z" />
<glyph unicode="&#xaa;" horiz-adv-x="304" d="M292 288q4 0 4 -10q0 -8 -4 -8h-70q-24 0 -24 27q-22 -32 -68 -32q-106 0 -106 83q0 89 120 89h5q23 0 34 5.5t13 11.5t2 17v8q0 66 -57 66q-27 0 -40 -11t-13 -23q0 -3 0.5 -7t0.5 -7q0 -26 -26 -26t-26 32q0 20 26.5 39.5t77.5 19.5q108 0 108 -83v-157 q0 -10 2.5 -16.5t12.5 -12t28 -5.5zM130 290q12 0 21 3t21 13t19 36.5t7 67.5v9h-54q-39 0 -53 -18.5t-14 -52.5q0 -24 11 -38t21.5 -17t20.5 -3z" />
<glyph unicode="&#xab;" horiz-adv-x="518" d="M414 103q-1 2 -87 93.5t-88 93.5q-11 10 -1 20l177 177q4 5 23 -14q21 -19 15 -24l-146 -149q144 -157 147 -159q3 -5 -16 -24q-20 -18 -24 -14zM234 103l-176 187q-10 10 0 20l176 177q4 4 24 -14q20 -19 15 -24l-147 -149q144 -157 147 -159q5 -5 -15 -24 q-20 -18 -24 -14z" />
<glyph unicode="&#xac;" horiz-adv-x="556" d="M510 300v-269q0 -7 -31 -7q-30 0 -30 7v209h-397q-6 0 -6 30t6 30h458z" />
<glyph unicode="&#xad;" horiz-adv-x="365" d="M317 276h-268q-7 0 -7 30t7 30h268q6 0 6 -30t-6 -30z" />
<glyph unicode="&#xae;" horiz-adv-x="621" d="M310 683q109 0 186 -72.5t77 -175.5t-77 -175.5t-186 -72.5t-185.5 72.5t-76.5 175.5t76.5 175.5t185.5 72.5zM310 218q95 0 162.5 63.5t67.5 153.5q0 89 -67.5 152.5t-162.5 63.5t-162.5 -63.5t-67.5 -152.5q0 -90 67.5 -153.5t162.5 -63.5zM453 307q3 0 3 -6 q0 -7 -3 -7h-49q-17 0 -22 10l-41 91q-11 23 -22.5 29.5t-29.5 6.5h-19v-98q0 -9 1.5 -13.5t10 -8.5t25.5 -4q2 0 2 -6q0 -7 -2 -7h-117q-3 0 -3 7q0 6 3 6q17 0 26 4t10.5 8.5t1.5 13.5v225q0 8 -1.5 12.5t-10.5 8.5t-26 4q-3 0 -3 7t3 7h134q97 0 97 -83q0 -72 -72 -81 q19 -7 33 -35l31 -65q10 -26 40 -26zM309 445q70 0 70 69t-69 69h-20q-20 0 -20 -26v-112h39z" />
<glyph unicode="&#xaf;" horiz-adv-x="529" d="M400 613h-268q-7 0 -7 30t7 30h268q6 0 6 -30t-6 -30z" />
<glyph unicode="&#xb0;" horiz-adv-x="396" d="M200 706q90 0 90 -86q0 -83 -90 -83q-94 0 -94 85q0 84 94 84zM200 570q22 0 31.5 11.5t9.5 41.5q0 27 -9.5 38.5t-31.5 11.5t-33 -11t-11 -39q0 -30 10.5 -41.5t33.5 -11.5z" />
<glyph unicode="&#xb1;" horiz-adv-x="511" d="M226 418h-129q-7 0 -7 30t7 30h129v121q0 6 30 6t30 -5v-122h129q6 0 6 -30t-6 -30h-129v-121q0 -7 -30 -7t-30 7v121zM415 138h-318q-7 0 -7 30t7 30h318q6 0 6 -30t-6 -30z" />
<glyph unicode="&#xb2;" horiz-adv-x="316" d="M271 270h-246q-4 0 -6 3.5t1 7.5l10 11q10 12 24 28t33 39t38 46.5t37.5 49t32.5 48t23 42t9 31.5q0 45 -23.5 63t-53.5 18q-38 0 -62 -22.5t-24 -48.5q0 -3 -8 -3q-10 0 -10 3v45q0 21 30 35t76 14q126 0 126 -109q0 -31 -41.5 -96t-80 -112t-44.5 -52q-3 -3 -0.5 -6.5 t7.5 -3.5h103q12 0 19.5 2t15.5 11t12 26q1 3 9 3q9 0 9 -3q0 -2 -4.5 -32.5t-5.5 -32.5q0 -5 -6 -5z" />
<glyph unicode="&#xb3;" horiz-adv-x="316" d="M152 263q-55 0 -86 13t-31 35v58q0 3 9 3q10 0 10 -3q0 -81 98 -81q74 0 74 85q0 58 -19.5 75.5t-52.5 17.5h-33q-3 0 -3 13q0 14 3 14h33q17 0 28.5 4.5t22 24.5t10.5 56q0 34 -10.5 52.5t-22.5 22t-31 3.5q-42 0 -65.5 -24t-23.5 -47q0 -3 -9 -3q-8 0 -8 3v44 q0 20 28 35t78 15q17 0 31 -1.5t31 -7.5t28 -17t19 -30.5t8 -46.5q0 -68 -45 -89q-9 -4 0 -8q58 -24 58 -108q0 -108 -129 -108z" />
<glyph unicode="&#xb4;" d="M382 683l-104 -141q-1 -3 -7.5 0t-20.5 12q-25 17 -21 22l103 141q4 5 28 -12q25 -17 22 -22z" />
<glyph unicode="&#xb5;" horiz-adv-x="576" d="M383 478h90v-391q0 -28 14 -43t57 -15q6 0 6 -14q0 -15 -6 -15h-122q-9 0 -14.5 1.5t-12 6t-9.5 15t-3 26.5q-43 -59 -132 -59q-20 0 -37 3t-24 6l-7 3v-107q0 -28 13.5 -43t57.5 -15q6 0 6 -14q0 -15 -5 -15h-234q-5 0 -5 15q0 14 5 14q45 0 58 14.5t13 43.5v583h91 v-320q0 -123 91 -123q43 0 76 32t33 103v308z" />
<glyph unicode="&#xb6;" horiz-adv-x="606" d="M563 -106q6 0 6 -15q0 -14 -6 -14h-413q-5 0 -5 14q0 15 5 15q52 0 67.5 14.5t15.5 42.5v338q0 17 -2 26.5t-13.5 17.5t-34.5 8h-25q-126 0 -126 166t129 166h402q6 0 6 -15t-6 -15q-48 0 -65.5 -13.5t-17.5 -43.5v-635q0 -28 15.5 -42.5t67.5 -14.5zM416 -50v636 q0 30 -14 43.5t-45 13.5q-32 0 -45.5 -13.5t-13.5 -43.5v-635q0 -57 59 -57t59 56z" />
<glyph unicode="&#xb7;" horiz-adv-x="327" d="M164 260q-56 0 -56 54q0 53 57 53q54 0 54 -54q0 -53 -55 -53z" />
<glyph unicode="&#xb8;" d="M215 -86l37 86h53l-21 -51q16 0 27.5 -1.5t26 -6t20.5 -13.5t10.5 -24t-3.5 -37q-7 -25 -20 -40.5t-34 -21t-33 -6.5t-38 -1q-7 0 -51 11q-5 3 -5 18q0 8 1 12.5t4 3.5q40 -10 57 -10q15 0 23 1.5t17.5 10t14.5 24.5q13 48 -31 48z" />
<glyph unicode="&#xb9;" horiz-adv-x="244" d="M212 270h-157q-3 0 -3 9t3 9q31 0 40.5 8.5t9.5 25.5v271h-66q-4 0 -4 9q0 10 4 10q28 0 60 15.5t32 46.5q0 3 16 3q15 0 15 -3v-352q0 -17 9.5 -25.5t40.5 -8.5q3 0 3 -9t-3 -9z" />
<glyph unicode="&#xba;" horiz-adv-x="302" d="M153 561q122 0 122 -151q0 -148 -124 -148q-125 0 -125 150q0 149 127 149zM150 280q13 0 23 4t21.5 16t18 40.5t6.5 72.5t-6 72.5t-17.5 40t-20.5 15t-22 3.5t-22.5 -3.5t-22 -15t-19.5 -40t-7 -71.5q0 -44 6 -73t17 -41t21 -16t24 -4z" />
<glyph unicode="&#xbb;" horiz-adv-x="518" d="M284 487l176 -187q11 -11 0 -20l-176 -177q-5 -5 -24 14q-20 19 -15 24l147 149q-144 157 -147 159q-5 5 15 24q20 18 24 14zM104 487q1 -2 86 -92t90 -95q9 -9 0 -20l-176 -177q-5 -5 -24 14q-20 19 -15 24l147 149q-145 157 -148 159q-3 5 16 24q20 18 24 14z" />
<glyph unicode="&#xbc;" horiz-adv-x="706" d="M671 144q4 0 4 -20t-4 -20h-65v-52q0 -11 2.5 -17.5t13.5 -11.5t33 -5q4 0 4 -9t-4 -9h-152q-3 0 -3 9t3 9q32 0 41 9t9 25v52h-164q-9 0 -5 8l169 292q2 3 27 3q26 0 26 -3v-260h65zM211 0q-3 -6 -33 -6h-12.5t-9.5 1t-6 2t-1 3l329 674q2 5 31 5h13t9.5 -0.5t7.5 -2 t1 -3.5zM210 270h-157q-3 0 -3 9t3 9q31 0 40.5 8.5t9.5 25.5v271h-66q-4 0 -4 9q0 10 4 10q28 0 60 15.5t32 46.5q0 3 16 3q15 0 15 -3v-352q0 -17 9.5 -25.5t40.5 -8.5q3 0 3 -9t-3 -9zM553 144v211q0 4 -2.5 4.5t-3.5 -2.5l-115 -200q-2 -4 1 -8.5t8 -4.5h112z" />
<glyph unicode="&#xbd;" horiz-adv-x="744" d="M210 0q-3 -6 -32 -6q-30 1 -29 6l328 674q3 5 31 5h13.5t10 -0.5t7 -2t0.5 -3.5zM689 0h-246q-4 0 -6 3.5t1 7.5l10 11q10 12 24 28t33 39t38 46.5t37.5 49t32.5 48t23 42t9 31.5q0 45 -23.5 63t-53.5 18q-38 0 -62 -22.5t-24 -48.5q0 -3 -8 -3q-10 0 -10 3v45 q0 21 30 35t76 14q126 0 126 -109q0 -31 -41.5 -96t-80 -112t-44.5 -52q-3 -3 -0.5 -6.5t7.5 -3.5h103q12 0 19.5 2t15.5 11t12 26q1 3 9 3q9 0 9 -3q0 -2 -4.5 -32.5t-5.5 -32.5q0 -5 -6 -5zM210 270h-157q-3 0 -3 9t3 9q31 0 40.5 8.5t9.5 25.5v271h-66q-4 0 -4 9 q0 10 4 10q28 0 60 15.5t32 46.5q0 3 16 3q15 0 15 -3v-352q0 -17 9.5 -25.5t40.5 -8.5q3 0 3 -9t-3 -9z" />
<glyph unicode="&#xbe;" horiz-adv-x="737" d="M700 144q4 0 4 -20t-4 -20h-65v-52q0 -11 2.5 -17.5t13.5 -11.5t33 -5q4 0 4 -9t-4 -9h-152q-3 0 -3 9t3 9q32 0 41 9t9 25v52h-164q-9 0 -5 8l169 292q2 3 27 3q26 0 26 -3v-260h65zM243 0q-3 -6 -32 -6q-30 1 -29 6l328 674q3 5 31 5h13.5t10 -0.5t7 -2t0.5 -3.5z M157 263q-55 0 -86 13t-31 35v58q0 3 9 3q10 0 10 -3q0 -81 98 -81q74 0 74 85q0 58 -19.5 75.5t-52.5 17.5h-33q-3 0 -3 13q0 14 3 14h33q17 0 28.5 4.5t22 24.5t10.5 56q0 34 -10.5 52.5t-22.5 22t-31 3.5q-42 0 -65.5 -24t-23.5 -47q0 -3 -9 -3q-8 0 -8 3v44q0 20 28 35 t78 15q17 0 31 -1.5t31 -7.5t28 -17t19 -30.5t8 -46.5q0 -68 -45 -89q-9 -4 0 -8q58 -24 58 -108q0 -108 -129 -108zM582 144v211q0 4 -2 4.5t-4 -2.5l-115 -200q-2 -4 1 -8.5t8 -4.5h112z" />
<glyph unicode="&#xbf;" horiz-adv-x="420" d="M244 487q55 0 55 -52t-56 -52q-53 0 -53 53q0 51 54 51zM250 296q35 0 35 -6q0 -55 -18 -99.5t-44 -73t-52 -53.5t-44 -53t-18 -58q0 -62 30.5 -90.5t77.5 -28.5q60 0 92.5 34t32.5 83q0 6 16 6q17 0 17 -6v-74q0 -36 -42 -59.5t-119 -23.5q-187 0 -187 165q0 36 19.5 68 t47.5 58t55.5 54t47 66.5t19.5 84.5q0 6 34 6z" />
<glyph unicode="&#xc0;" horiz-adv-x="694" d="M21 0q-7 0 -7 15q0 14 7 14q70 0 93 54q7 19 67 166.5t116.5 285t56.5 139.5q2 4 7 4q6 0 8 -4l215 -593q19 -52 88 -52q6 0 6 -14q0 -15 -6 -15h-255q-6 0 -6 15q0 14 6 14q39 0 56.5 12t7.5 42l-38 112h-158q-39 0 -62 -9t-30 -18t-14 -26l-24 -60q-10 -29 6.5 -41 t54.5 -12q7 0 7 -14q0 -15 -7 -15h-195zM212 227h141q43 0 57 13t4 41q-5 14 -24.5 71t-35 102.5t-17.5 49.5q-2 7 -7.5 7t-7.5 -6zM374 737l-103 141q-4 4 21 22q25 16 28 12l103 -141q4 -5 -21 -22q-12 -8 -19.5 -11.5t-8.5 -0.5z" />
<glyph unicode="&#xc1;" horiz-adv-x="694" d="M21 0q-7 0 -7 15q0 14 7 14q70 0 93 54q7 19 67 166.5t116.5 285t56.5 139.5q2 4 7 4q6 0 8 -4l215 -593q19 -52 88 -52q6 0 6 -14q0 -15 -6 -15h-255q-6 0 -6 15q0 14 6 14q39 0 56.5 12t7.5 42l-38 112h-158q-39 0 -62 -9t-30 -18t-14 -26l-24 -60q-10 -29 6.5 -41 t54.5 -12q7 0 7 -14q0 -15 -7 -15h-195zM212 227h141q43 0 57 13t4 41q-5 14 -24.5 71t-35 102.5t-17.5 49.5q-2 7 -7.5 7t-7.5 -6zM424 878l-104 -141q-1 -3 -7.5 0t-20.5 12q-25 17 -21 22l103 141q4 5 28 -12q25 -17 22 -22z" />
<glyph unicode="&#xc2;" horiz-adv-x="694" d="M21 0q-7 0 -7 15q0 14 7 14q70 0 93 54q7 19 67 166.5t116.5 285t56.5 139.5q2 4 7 4q6 0 8 -4l215 -593q19 -52 88 -52q6 0 6 -14q0 -15 -6 -15h-255q-6 0 -6 15q0 14 6 14q39 0 56.5 12t7.5 42l-38 112h-158q-39 0 -62 -9t-30 -18t-14 -26l-24 -60q-10 -29 6.5 -41 t54.5 -12q7 0 7 -14q0 -15 -7 -15h-195zM212 227h141q43 0 57 13t4 41q-5 14 -24.5 71t-35 102.5t-17.5 49.5q-2 7 -7.5 7t-7.5 -6zM182 771l155 147q12 10 20 0l156 -147q3 -5 -17 -24q-19 -21 -24 -15l-125 117q-121 -115 -124 -118q-3 -4 -25 16q-21 19 -16 24z" />
<glyph unicode="&#xc3;" horiz-adv-x="694" d="M21 0q-7 0 -7 15q0 14 7 14q70 0 93 54q7 19 67 166.5t116.5 285t56.5 139.5q2 4 7 4q6 0 8 -4l215 -593q19 -52 88 -52q6 0 6 -14q0 -15 -6 -15h-255q-6 0 -6 15q0 14 6 14q39 0 56.5 12t7.5 42l-38 112h-158q-39 0 -62 -9t-30 -18t-14 -26l-24 -60q-10 -29 6.5 -41 t54.5 -12q7 0 7 -14q0 -15 -7 -15h-195zM212 227h141q43 0 57 13t4 41q-5 14 -24.5 71t-35 102.5t-17.5 49.5q-2 7 -7.5 7t-7.5 -6zM277 822q-40 0 -66 -52q-3 -4 -20 1q-9 3 -13 5t-3 5q1 4 3.5 11.5t11 23.5t19 28t29 22t39.5 10q34 0 76 -29.5t65 -29.5q21 0 37.5 13.5 t21.5 23t7 15.5q2 7 20 0q8 -1 13 -4.5t4 -6.5l-2 -6q-2 -6 -6 -14t-9.5 -18.5t-13.5 -20t-18 -18t-24 -13.5t-30 -5q-34 0 -76 29.5t-65 29.5z" />
<glyph unicode="&#xc4;" horiz-adv-x="694" d="M21 0q-7 0 -7 15q0 14 7 14q70 0 93 54q7 19 67 166.5t116.5 285t56.5 139.5q2 4 7 4q6 0 8 -4l215 -593q19 -52 88 -52q6 0 6 -14q0 -15 -6 -15h-255q-6 0 -6 15q0 14 6 14q39 0 56.5 12t7.5 42l-38 112h-158q-39 0 -62 -9t-30 -18t-14 -26l-24 -60q-10 -29 6.5 -41 t54.5 -12q7 0 7 -14q0 -15 -7 -15h-195zM212 227h141q43 0 57 13t4 41q-5 14 -24.5 71t-35 102.5t-17.5 49.5q-2 7 -7.5 7t-7.5 -6zM258 766q-55 0 -55 54q0 52 57 52q53 0 53 -53t-55 -53zM463 766q-56 0 -56 54q0 52 57 52q53 0 53 -53t-54 -53z" />
<glyph unicode="&#xc5;" horiz-adv-x="694" d="M21 0q-7 0 -7 15q0 14 7 14q70 0 93 54q7 19 67 166.5t116.5 285t56.5 139.5q2 4 7 4q6 0 8 -4l215 -593q19 -52 88 -52q6 0 6 -14q0 -15 -6 -15h-255q-6 0 -6 15q0 14 6 14q39 0 56.5 12t7.5 42l-38 112h-158q-39 0 -62 -9t-30 -18t-14 -26l-24 -60q-10 -29 6.5 -41 t54.5 -12q7 0 7 -14q0 -15 -7 -15h-195zM212 227h141q43 0 57 13t4 41q-5 14 -24.5 71t-35 102.5t-17.5 49.5q-2 7 -7.5 7t-7.5 -6zM361 901q91 0 91 -86q0 -83 -91 -83q-94 0 -94 85q0 84 94 84zM361 765q22 0 31.5 11.5t9.5 41.5q0 27 -9.5 38.5t-31.5 11.5t-33 -11 t-11 -39q0 -30 10.5 -41.5t33.5 -11.5z" />
<glyph unicode="&#xc6;" horiz-adv-x="956" d="M895 138q16 0 15 -5q-1 -4 -8.5 -63.5t-7.5 -62.5q-1 -7 -9 -7h-459q-5 0 -5 15q0 14 5 14q53 0 68.5 14.5t15.5 42.5v109h-202q-35 0 -59 -8.5t-33.5 -18t-22.5 -27.5l-39 -57q-41 -55 36 -55q6 0 6 -14q0 -15 -6 -15h-184q-6 0 -6 15q0 14 6 14q57 0 96 55l408 589h366 q7 0 9 -8q0 -3 7.5 -63t8.5 -62q0 -6 -15 -6q-14 0 -15 6q-13 58 -30.5 79.5t-47.5 21.5h-144q-24 0 -34 -14t-10 -42v-220h147q13 0 22 2t18.5 9t14.5 22.5t5 39.5q0 6 16 6q14 0 14 -6v-177q0 -6 -14 -6q-16 0 -16 6q0 45 -16 58.5t-44 13.5h-94q-28 0 -40.5 -17.5 t-12.5 -60.5q0 -25 -0.5 -85.5t-0.5 -80.5q0 -31 10 -44.5t35 -13.5h152q29 0 47 21t31 81q2 5 16 5zM510 281v306q0 7 -4.5 8.5t-8.5 -4.5l-246 -365h182q47 0 62 14t15 41z" />
<glyph unicode="&#xc7;" horiz-adv-x="625" d="M570 180q-21 -190 -227 -190l-15 -39q15 0 27 -1.5t26 -6t20 -13.5t10.5 -23.5t-3.5 -36.5q-5 -21 -16 -35t-21.5 -21t-29 -10.5t-28.5 -4t-30 -0.5q-18 0 -51 11q-6 3 -6 19q0 8 1.5 12.5t4.5 3.5q30 -10 56 -10q15 0 23.5 1.5t18 10t14.5 24.5q13 48 -30 48l-57 -3 l33 76q-234 24 -234 344q0 66 10 119.5t26.5 89t41 62t48.5 41t54.5 22.5t54.5 10.5t52 2.5q87 0 148.5 -22t61.5 -56v-104q0 -5 -14 -5q-15 0 -15 5q0 42 -18 73t-47 47t-58 23t-58 7q-22 0 -38.5 -3t-40 -12t-40.5 -30.5t-33 -54.5t-24.5 -88t-8.5 -127q0 -88 16.5 -150.5 t45.5 -93t58.5 -43t64.5 -12.5q74 0 123.5 29.5t63.5 113.5q0 4 20 4q21 0 20 -4z" />
<glyph unicode="&#xc8;" horiz-adv-x="590" d="M45 30q47 0 65 13t18 44v500q0 32 -18.5 44.5t-64.5 12.5q-6 0 -6 14q0 15 6 15h449q9 0 9 -7l17 -126q0 -6 -15 -6q-13 0 -15 6q-13 59 -30.5 80.5t-48.5 21.5h-144q-23 0 -33.5 -13t-10.5 -45v-218h148q31 0 45.5 16t14.5 56q0 6 15 6t15 -6v-176q0 -6 -15 -6t-15 6 q0 41 -14 56.5t-46 15.5h-88q-33 0 -46.5 -15.5t-13.5 -62.5v-166q0 -58 43 -58h154q31 0 47.5 22.5t30.5 78.5q1 6 15 6q16 0 16 -6l-17 -125q-2 -8 -10 -8h-457q-6 0 -6 15t6 15zM322 737l-103 141q-4 4 21 22q25 16 28 12l103 -141q4 -5 -21 -22q-12 -8 -19.5 -11.5 t-8.5 -0.5z" />
<glyph unicode="&#xc9;" horiz-adv-x="590" d="M45 30q47 0 65 13t18 44v500q0 32 -18.5 44.5t-64.5 12.5q-6 0 -6 14q0 15 6 15h449q9 0 9 -7l17 -126q0 -6 -15 -6q-13 0 -15 6q-13 59 -30.5 80.5t-48.5 21.5h-144q-23 0 -33.5 -13t-10.5 -45v-218h148q31 0 45.5 16t14.5 56q0 6 15 6t15 -6v-176q0 -6 -15 -6t-15 6 q0 41 -14 56.5t-46 15.5h-88q-33 0 -46.5 -15.5t-13.5 -62.5v-166q0 -58 43 -58h154q31 0 47.5 22.5t30.5 78.5q1 6 15 6q16 0 16 -6l-17 -125q-2 -8 -10 -8h-457q-6 0 -6 15t6 15zM371 878l-104 -141q-1 -3 -7.5 0t-20.5 12q-25 17 -21 22l103 141q4 5 28 -12 q25 -17 22 -22z" />
<glyph unicode="&#xca;" horiz-adv-x="590" d="M45 30q47 0 65 13t18 44v500q0 32 -18.5 44.5t-64.5 12.5q-6 0 -6 14q0 15 6 15h449q9 0 9 -7l17 -126q0 -6 -15 -6q-13 0 -15 6q-13 59 -30.5 80.5t-48.5 21.5h-144q-23 0 -33.5 -13t-10.5 -45v-218h148q31 0 45.5 16t14.5 56q0 6 15 6t15 -6v-176q0 -6 -15 -6t-15 6 q0 41 -14 56.5t-46 15.5h-88q-33 0 -46.5 -15.5t-13.5 -62.5v-166q0 -58 43 -58h154q31 0 47.5 22.5t30.5 78.5q1 6 15 6q16 0 16 -6l-17 -125q-2 -8 -10 -8h-457q-6 0 -6 15t6 15zM129 771l155 147q12 10 20 0l156 -147q3 -5 -17 -24q-19 -21 -24 -15l-125 117 q-121 -115 -124 -118q-3 -4 -25 16q-21 19 -16 24z" />
<glyph unicode="&#xcb;" horiz-adv-x="590" d="M45 30q47 0 65 13t18 44v500q0 32 -18.5 44.5t-64.5 12.5q-6 0 -6 14q0 15 6 15h449q9 0 9 -7l17 -126q0 -6 -15 -6q-13 0 -15 6q-13 59 -30.5 80.5t-48.5 21.5h-144q-23 0 -33.5 -13t-10.5 -45v-218h148q31 0 45.5 16t14.5 56q0 6 15 6t15 -6v-176q0 -6 -15 -6t-15 6 q0 41 -14 56.5t-46 15.5h-88q-33 0 -46.5 -15.5t-13.5 -62.5v-166q0 -58 43 -58h154q31 0 47.5 22.5t30.5 78.5q1 6 15 6q16 0 16 -6l-17 -125q-2 -8 -10 -8h-457q-6 0 -6 15t6 15zM193 766q-55 0 -55 54q0 52 57 52q53 0 53 -53t-55 -53zM398 766q-56 0 -56 54q0 52 57 52 q53 0 53 -53t-54 -53z" />
<glyph unicode="&#xcc;" horiz-adv-x="347" d="M43 29q50 0 66.5 14t16.5 44v500q0 17 -4.5 28t-23.5 19.5t-55 8.5q-6 0 -6 15t6 15h261q5 0 5 -15t-5 -15q-49 0 -66.5 -13.5t-17.5 -42.5v-500q0 -13 2.5 -21.5t10 -18t25.5 -14t46 -4.5q5 0 5 -14q0 -15 -5 -15h-261q-6 0 -6 15q0 14 6 14zM201 737l-103 141 q-4 4 21 22q25 16 28 12l103 -141q4 -5 -21 -22q-12 -8 -19.5 -11.5t-8.5 -0.5z" />
<glyph unicode="&#xcd;" horiz-adv-x="347" d="M43 29q50 0 66.5 14t16.5 44v500q0 17 -4.5 28t-23.5 19.5t-55 8.5q-6 0 -6 15t6 15h261q5 0 5 -15t-5 -15q-49 0 -66.5 -13.5t-17.5 -42.5v-500q0 -13 2.5 -21.5t10 -18t25.5 -14t46 -4.5q5 0 5 -14q0 -15 -5 -15h-261q-6 0 -6 15q0 14 6 14zM252 878l-104 -141 q-1 -3 -7.5 0t-20.5 12q-25 17 -21 22l103 141q4 5 28 -12q25 -17 22 -22z" />
<glyph unicode="&#xce;" horiz-adv-x="347" d="M43 29q50 0 66.5 14t16.5 44v500q0 17 -4.5 28t-23.5 19.5t-55 8.5q-6 0 -6 15t6 15h261q5 0 5 -15t-5 -15q-49 0 -66.5 -13.5t-17.5 -42.5v-500q0 -13 2.5 -21.5t10 -18t25.5 -14t46 -4.5q5 0 5 -14q0 -15 -5 -15h-261q-6 0 -6 15q0 14 6 14zM9 771l155 147q12 10 20 0 l156 -147q3 -5 -17 -24q-19 -21 -24 -15l-125 117q-121 -115 -124 -118q-3 -4 -25 16q-21 19 -16 24z" />
<glyph unicode="&#xcf;" horiz-adv-x="347" d="M43 29q50 0 66.5 14t16.5 44v500q0 17 -4.5 28t-23.5 19.5t-55 8.5q-6 0 -6 15t6 15h261q5 0 5 -15t-5 -15q-49 0 -66.5 -13.5t-17.5 -42.5v-500q0 -13 2.5 -21.5t10 -18t25.5 -14t46 -4.5q5 0 5 -14q0 -15 -5 -15h-261q-6 0 -6 15q0 14 6 14zM72 766q-55 0 -55 54 q0 52 57 52q53 0 53 -53t-55 -53zM277 766q-56 0 -56 54q0 52 57 52q53 0 53 -53t-54 -53z" />
<glyph unicode="&#xd0;" horiz-adv-x="681" d="M346 673q40 0 73 -5.5t74 -25.5t68.5 -54.5t47 -99t19.5 -152.5q0 -86 -18.5 -149t-46 -98t-67.5 -56t-74.5 -27t-75.5 -6h-309q-5 0 -5 15q0 14 5 14q53 0 68 15t15 43v219h-87q-6 0 -6 30t6 30h87v220q0 28 -15.5 42.5t-67.5 14.5q-5 0 -5 15t5 15h309zM346 32 q30 0 54.5 7t48.5 27t40.5 52.5t26.5 88t10 129.5q0 77 -10.5 133.5t-27 89t-41.5 51.5t-48.5 25t-53.5 6h-85q-26 0 -35.5 -15t-9.5 -42v-218h86q7 0 7 -30t-7 -30h-86v-217q0 -57 45 -57h86z" />
<glyph unicode="&#xd1;" horiz-adv-x="720" d="M42 30q50 0 65.5 14t15.5 43v500q0 28 -16.5 42t-64.5 14q-5 0 -5 15t5 15h150q13 0 16 -5l343 -492q4 -6 8.5 -5t4.5 8v408q0 28 -16.5 42t-65.5 14q-6 0 -6 15t6 15h200q6 0 6 -14q0 -16 -6 -16q-52 0 -67 -14.5t-15 -42.5v-592q0 -4 -14 -4q-12 0 -15 4l-397 568 q-2 4 -5.5 5t-5.5 -1t-2 -7v-472q0 -13 2 -21t9.5 -17.5t25 -14t44.5 -4.5q6 0 6 -15t-6 -15h-200q-5 0 -5 15t5 15zM289 822q-40 0 -66 -52q-3 -4 -20 1q-9 3 -13 5t-3 5q1 4 3.5 11.5t11 23.5t19 28t29 22t39.5 10q34 0 76 -29.5t65 -29.5q21 0 37.5 13.5t21.5 23t7 15.5 q2 7 20 0q8 -1 13 -4.5t4 -6.5l-2 -6q-2 -6 -6 -14t-9.5 -18.5t-13.5 -20t-18 -18t-24 -13.5t-30 -5q-34 0 -76 29.5t-65 29.5z" />
<glyph unicode="&#xd2;" horiz-adv-x="683" d="M343 681q40 0 71 -4t73.5 -24t70.5 -54.5t48.5 -102.5t20.5 -161q0 -68 -11 -123t-27.5 -90.5t-42 -61.5t-48.5 -39.5t-54 -21.5t-52.5 -9.5t-48.5 -1.5t-48 1.5t-52 9.5t-55 21.5t-49.5 39.5t-42.5 61.5t-28 90.5t-11 123t11 123t27.5 90.5t42 61t49 39t55 21.5 t52.5 9.5t49 1.5zM343 20q27 0 47 3.5t47.5 21.5t45 49.5t30 93t12.5 147.5q0 71 -8 126t-23.5 88t-32 54.5t-39.5 31t-40 12.5t-39 3t-39 -3t-40 -12.5t-40 -31t-32.5 -54.5t-24 -88t-8.5 -126q0 -85 13.5 -146.5t32 -93t46.5 -49.5t47.5 -22t44.5 -4zM368 737l-103 141 q-4 4 21 22q25 16 28 12l103 -141q4 -5 -21 -22q-12 -8 -19.5 -11.5t-8.5 -0.5z" />
<glyph unicode="&#xd3;" horiz-adv-x="683" d="M343 681q40 0 71 -4t73.5 -24t70.5 -54.5t48.5 -102.5t20.5 -161q0 -68 -11 -123t-27.5 -90.5t-42 -61.5t-48.5 -39.5t-54 -21.5t-52.5 -9.5t-48.5 -1.5t-48 1.5t-52 9.5t-55 21.5t-49.5 39.5t-42.5 61.5t-28 90.5t-11 123t11 123t27.5 90.5t42 61t49 39t55 21.5 t52.5 9.5t49 1.5zM343 20q27 0 47 3.5t47.5 21.5t45 49.5t30 93t12.5 147.5q0 71 -8 126t-23.5 88t-32 54.5t-39.5 31t-40 12.5t-39 3t-39 -3t-40 -12.5t-40 -31t-32.5 -54.5t-24 -88t-8.5 -126q0 -85 13.5 -146.5t32 -93t46.5 -49.5t47.5 -22t44.5 -4zM418 878l-104 -141 q-1 -3 -7.5 0t-20.5 12q-25 17 -21 22l103 141q4 5 28 -12q25 -17 22 -22z" />
<glyph unicode="&#xd4;" horiz-adv-x="683" d="M343 681q40 0 71 -4t73.5 -24t70.5 -54.5t48.5 -102.5t20.5 -161q0 -68 -11 -123t-27.5 -90.5t-42 -61.5t-48.5 -39.5t-54 -21.5t-52.5 -9.5t-48.5 -1.5t-48 1.5t-52 9.5t-55 21.5t-49.5 39.5t-42.5 61.5t-28 90.5t-11 123t11 123t27.5 90.5t42 61t49 39t55 21.5 t52.5 9.5t49 1.5zM343 20q27 0 47 3.5t47.5 21.5t45 49.5t30 93t12.5 147.5q0 71 -8 126t-23.5 88t-32 54.5t-39.5 31t-40 12.5t-39 3t-39 -3t-40 -12.5t-40 -31t-32.5 -54.5t-24 -88t-8.5 -126q0 -85 13.5 -146.5t32 -93t46.5 -49.5t47.5 -22t44.5 -4zM176 771l155 147 q12 10 20 0l156 -147q3 -5 -17 -24q-19 -21 -24 -15l-125 117q-121 -115 -124 -118q-3 -4 -25 16q-21 19 -16 24z" />
<glyph unicode="&#xd5;" horiz-adv-x="683" d="M343 681q40 0 71 -4t73.5 -24t70.5 -54.5t48.5 -102.5t20.5 -161q0 -68 -11 -123t-27.5 -90.5t-42 -61.5t-48.5 -39.5t-54 -21.5t-52.5 -9.5t-48.5 -1.5t-48 1.5t-52 9.5t-55 21.5t-49.5 39.5t-42.5 61.5t-28 90.5t-11 123t11 123t27.5 90.5t42 61t49 39t55 21.5 t52.5 9.5t49 1.5zM343 20q27 0 47 3.5t47.5 21.5t45 49.5t30 93t12.5 147.5q0 71 -8 126t-23.5 88t-32 54.5t-39.5 31t-40 12.5t-39 3t-39 -3t-40 -12.5t-40 -31t-32.5 -54.5t-24 -88t-8.5 -126q0 -85 13.5 -146.5t32 -93t46.5 -49.5t47.5 -22t44.5 -4zM270 822 q-40 0 -66 -52q-3 -4 -20 1q-9 3 -13 5t-3 5q1 4 3.5 11.5t11 23.5t19 28t29 22t39.5 10q34 0 76 -29.5t65 -29.5q21 0 37.5 13.5t21.5 23t7 15.5q2 7 20 0q8 -1 13 -4.5t4 -6.5l-2 -6q-2 -6 -6 -14t-9.5 -18.5t-13.5 -20t-18 -18t-24 -13.5t-30 -5q-34 0 -76 29.5t-65 29.5 z" />
<glyph unicode="&#xd6;" horiz-adv-x="683" d="M343 681q40 0 71 -4t73.5 -24t70.5 -54.5t48.5 -102.5t20.5 -161q0 -68 -11 -123t-27.5 -90.5t-42 -61.5t-48.5 -39.5t-54 -21.5t-52.5 -9.5t-48.5 -1.5t-48 1.5t-52 9.5t-55 21.5t-49.5 39.5t-42.5 61.5t-28 90.5t-11 123t11 123t27.5 90.5t42 61t49 39t55 21.5 t52.5 9.5t49 1.5zM343 20q27 0 47 3.5t47.5 21.5t45 49.5t30 93t12.5 147.5q0 71 -8 126t-23.5 88t-32 54.5t-39.5 31t-40 12.5t-39 3t-39 -3t-40 -12.5t-40 -31t-32.5 -54.5t-24 -88t-8.5 -126q0 -85 13.5 -146.5t32 -93t46.5 -49.5t47.5 -22t44.5 -4zM239 766 q-55 0 -55 54q0 52 57 52q53 0 53 -53t-55 -53zM444 766q-56 0 -56 54q0 52 57 52q53 0 53 -53t-54 -53z" />
<glyph unicode="&#xd7;" horiz-adv-x="511" d="M256 259l-114 -108q-4 -4 -26 17q-9 10 -14 17t-3 8l114 108l-114 107q-6 6 18 26q21 21 25 17l114 -108l113 107q4 4 26 -16q21 -22 17 -26l-114 -107l114 -107q4 -4 -17 -26q-23 -21 -26 -16z" />
<glyph unicode="&#xd8;" horiz-adv-x="683" d="M217 -2q-3 -6 -40 -6h-15t-12.5 1t-8.5 2t-2 3l20 42q-102 82 -102 295q0 68 11 123t27.5 90.5t42 61t49 39t55 21.5t52.5 9.5t49 1.5q68 0 119 -17l5 10q2 6 40 6h15.5t12.5 -0.5t9.5 -2t1.5 -3.5l-22 -44q103 -80 103 -295q0 -68 -11 -123t-27.5 -90.5t-42 -61.5 t-48.5 -39.5t-54 -21.5t-52.5 -9.5t-48.5 -1.5q-73 0 -122 17q-1 -2 -3 -5zM343 20q27 0 47 3.5t47.5 21.5t45 49.5t30 93t12.5 147.5q0 146 -36 223l-246 -507q38 -31 100 -31zM159 335q0 -144 36 -221l247 508q-38 28 -99 28q-22 0 -39 -3t-40 -12.5t-40 -31t-32.5 -54.5 t-24 -88t-8.5 -126z" />
<glyph unicode="&#xd9;" horiz-adv-x="715" d="M36 644q-5 0 -5 14q0 15 5 15h260q7 0 7 -15q0 -14 -7 -14q-38 0 -57 -7.5t-22.5 -17t-3.5 -27.5v-398q0 -52 15 -87t42 -50t50.5 -20t54.5 -5q35 0 62 5.5t57.5 21t47.5 50.5t17 88v395q0 18 -3 27t-22 17t-58 8q-6 0 -6 14q0 15 6 15h203q6 0 6 -15q0 -14 -6 -14 q-39 0 -58 -8t-22.5 -17t-3.5 -27v-396q0 -56 -17 -96.5t-39.5 -61t-57.5 -32t-59.5 -14t-56.5 -2.5q-23 0 -41.5 1t-45.5 5.5t-47 13t-42.5 24t-36.5 37t-23.5 55t-9.5 74.5v392q0 18 -3 27t-22 17t-58 8zM389 737l-103 141q-4 4 21 22q25 16 28 12l103 -141q4 -5 -21 -22 q-12 -8 -19.5 -11.5t-8.5 -0.5z" />
<glyph unicode="&#xda;" horiz-adv-x="715" d="M36 644q-5 0 -5 14q0 15 5 15h260q7 0 7 -15q0 -14 -7 -14q-38 0 -57 -7.5t-22.5 -17t-3.5 -27.5v-398q0 -52 15 -87t42 -50t50.5 -20t54.5 -5q35 0 62 5.5t57.5 21t47.5 50.5t17 88v395q0 18 -3 27t-22 17t-58 8q-6 0 -6 14q0 15 6 15h203q6 0 6 -15q0 -14 -6 -14 q-39 0 -58 -8t-22.5 -17t-3.5 -27v-396q0 -56 -17 -96.5t-39.5 -61t-57.5 -32t-59.5 -14t-56.5 -2.5q-23 0 -41.5 1t-45.5 5.5t-47 13t-42.5 24t-36.5 37t-23.5 55t-9.5 74.5v392q0 18 -3 27t-22 17t-58 8zM450 878l-104 -141q-1 -3 -7.5 0t-20.5 12q-25 17 -21 22l103 141 q4 5 28 -12q25 -17 22 -22z" />
<glyph unicode="&#xdb;" horiz-adv-x="715" d="M36 644q-5 0 -5 14q0 15 5 15h260q7 0 7 -15q0 -14 -7 -14q-38 0 -57 -7.5t-22.5 -17t-3.5 -27.5v-398q0 -52 15 -87t42 -50t50.5 -20t54.5 -5q35 0 62 5.5t57.5 21t47.5 50.5t17 88v395q0 18 -3 27t-22 17t-58 8q-6 0 -6 14q0 15 6 15h203q6 0 6 -15q0 -14 -6 -14 q-39 0 -58 -8t-22.5 -17t-3.5 -27v-396q0 -56 -17 -96.5t-39.5 -61t-57.5 -32t-59.5 -14t-56.5 -2.5q-23 0 -41.5 1t-45.5 5.5t-47 13t-42.5 24t-36.5 37t-23.5 55t-9.5 74.5v392q0 18 -3 27t-22 17t-58 8zM197 771l155 147q12 10 20 0l156 -147q3 -5 -17 -24 q-19 -21 -24 -15l-125 117q-121 -115 -124 -118q-3 -4 -25 16q-21 19 -16 24z" />
<glyph unicode="&#xdc;" horiz-adv-x="715" d="M36 644q-5 0 -5 14q0 15 5 15h260q7 0 7 -15q0 -14 -7 -14q-38 0 -57 -7.5t-22.5 -17t-3.5 -27.5v-398q0 -52 15 -87t42 -50t50.5 -20t54.5 -5q35 0 62 5.5t57.5 21t47.5 50.5t17 88v395q0 18 -3 27t-22 17t-58 8q-6 0 -6 14q0 15 6 15h203q6 0 6 -15q0 -14 -6 -14 q-39 0 -58 -8t-22.5 -17t-3.5 -27v-396q0 -56 -17 -96.5t-39.5 -61t-57.5 -32t-59.5 -14t-56.5 -2.5q-23 0 -41.5 1t-45.5 5.5t-47 13t-42.5 24t-36.5 37t-23.5 55t-9.5 74.5v392q0 18 -3 27t-22 17t-58 8zM269 766q-55 0 -55 54q0 52 57 52q53 0 53 -53t-55 -53zM474 766 q-56 0 -56 54q0 52 57 52q53 0 53 -53t-54 -53z" />
<glyph unicode="&#xdd;" horiz-adv-x="639" d="M451 0h-261q-5 0 -5 16q0 14 5 14q29 0 47 4.5t25.5 14t9.5 17.5t2 21v206q-139 262 -156 294q-29 57 -101 57q-7 0 -7 14q0 15 7 15h255q6 0 6 -15q0 -14 -6 -14q-34 0 -48 -9.5t-12 -20.5t11 -27l121 -225q3 -7 10.5 -7t11.5 7l120 225q17 24 8 40.5t-56 16.5 q-6 0 -6 14q0 15 6 15h188q6 0 6 -15q0 -14 -6 -14q-44 0 -65.5 -15t-35.5 -42q-21 -37 -80 -150t-77 -144v-206q0 -17 4 -27.5t23.5 -20t55.5 -9.5q6 0 6 -14q0 -16 -6 -16zM410 878l-104 -141q-1 -3 -7.5 0t-20.5 12q-25 17 -21 22l103 141q4 5 28 -12q25 -17 22 -22z" />
<glyph unicode="&#xde;" horiz-adv-x="595" d="M346 562q217 0 217 -184q0 -185 -212 -185h-42q-29 0 -46.5 -4t-25 -12.5t-9.5 -16.5t-2 -22v-52q0 -20 4 -30.5t23 -18.5t56 -8q6 0 6 -14q0 -15 -6 -15h-261q-6 0 -6 15q0 14 6 14q37 0 56 8.5t23 19t4 29.5v500q0 28 -15.5 42.5t-67.5 14.5q-6 0 -6 15t6 15h261 q6 0 6 -15t-6 -15q-49 0 -66 -14t-17 -43v-24h120zM313 225q50 0 83.5 14.5t48 40t19 47.5t4.5 51q0 30 -4.5 52.5t-18.5 47.5t-46 38.5t-81 13.5h-47q-45 0 -45 -58v-247h87z" />
<glyph unicode="&#xdf;" horiz-adv-x="533" d="M152 0h-120q-5 0 -5 15q0 14 5 14q24 0 39 4.5t21.5 14t8.5 18t2 21.5v428q0 168 172 168q27 0 47 -2t48 -11.5t46 -27t31 -51t13 -79.5q0 -38 -7.5 -66.5t-21.5 -45.5t-21 -22.5t-19 -13.5q-5 -2 -5 -6.5t5 -6.5q98 -38 98 -180q0 -45 -15 -78t-36 -50.5t-54.5 -27.5 t-60.5 -12.5t-63 -2.5q-6 0 -6 23q0 22 6 22q23 0 39 1.5t36.5 9t32.5 20.5t21 38t9 60q0 52 -9.5 85.5t-29 47.5t-36.5 18t-43 4h-20q-6 0 -6 23q0 22 6 22h20q43 0 67 27.5t24 113.5q0 43 -7.5 71t-22.5 40t-29.5 16t-36.5 4q-37 0 -60.5 -28t-23.5 -107v-466 q0 -26 -9.5 -35.5t-29.5 -9.5z" />
<glyph unicode="&#xe0;" horiz-adv-x="507" d="M487 30q7 0 7 -15t-7 -15h-117q-18 0 -28.5 8.5t-10.5 36.5q-38 -53 -114 -53q-177 0 -177 137q0 149 201 149h7q38 0 57 9t22.5 19.5t3.5 29.5v12q0 110 -95 110q-46 0 -67.5 -18.5t-21.5 -38.5q0 -3 1 -11t1 -12q0 -24 -14.5 -34t-29.5 -10q-9 0 -17.5 3.5t-17 16.5 t-8.5 34q0 34 44 66.5t130 32.5q29 0 56 -5t57 -18.5t48.5 -43t18.5 -72.5v-261q0 -27 13.5 -42t57.5 -15zM217 34q12 0 21.5 1.5t24.5 7t25.5 19t21 34t16 55.5t5.5 81v16h-90q-66 0 -89 -31t-23 -87q0 -30 10 -51t26 -29.5t28 -12t24 -3.5zM275 542l-103 141q-4 4 21 22 q25 16 28 12l103 -141q4 -5 -21 -22q-12 -8 -19.5 -11.5t-8.5 -0.5z" />
<glyph unicode="&#xe1;" horiz-adv-x="507" d="M487 30q7 0 7 -15t-7 -15h-117q-18 0 -28.5 8.5t-10.5 36.5q-38 -53 -114 -53q-177 0 -177 137q0 149 201 149h7q38 0 57 9t22.5 19.5t3.5 29.5v12q0 110 -95 110q-46 0 -67.5 -18.5t-21.5 -38.5q0 -3 1 -11t1 -12q0 -24 -14.5 -34t-29.5 -10q-9 0 -17.5 3.5t-17 16.5 t-8.5 34q0 34 44 66.5t130 32.5q29 0 56 -5t57 -18.5t48.5 -43t18.5 -72.5v-261q0 -27 13.5 -42t57.5 -15zM217 34q12 0 21.5 1.5t24.5 7t25.5 19t21 34t16 55.5t5.5 81v16h-90q-66 0 -89 -31t-23 -87q0 -30 10 -51t26 -29.5t28 -12t24 -3.5zM327 683l-104 -141 q-1 -3 -7.5 0t-20.5 12q-25 17 -21 22l103 141q4 5 28 -12q25 -17 22 -22z" />
<glyph unicode="&#xe2;" horiz-adv-x="507" d="M487 30q7 0 7 -15t-7 -15h-117q-18 0 -28.5 8.5t-10.5 36.5q-38 -53 -114 -53q-177 0 -177 137q0 149 201 149h7q38 0 57 9t22.5 19.5t3.5 29.5v12q0 110 -95 110q-46 0 -67.5 -18.5t-21.5 -38.5q0 -3 1 -11t1 -12q0 -24 -14.5 -34t-29.5 -10q-9 0 -17.5 3.5t-17 16.5 t-8.5 34q0 34 44 66.5t130 32.5q29 0 56 -5t57 -18.5t48.5 -43t18.5 -72.5v-261q0 -27 13.5 -42t57.5 -15zM217 34q12 0 21.5 1.5t24.5 7t25.5 19t21 34t16 55.5t5.5 81v16h-90q-66 0 -89 -31t-23 -87q0 -30 10 -51t26 -29.5t28 -12t24 -3.5zM74 576l155 147q12 10 20 0 l156 -147q3 -5 -17 -24q-19 -21 -24 -15l-125 117q-121 -115 -124 -118q-3 -4 -25 16q-21 19 -16 24z" />
<glyph unicode="&#xe3;" horiz-adv-x="507" d="M487 30q7 0 7 -15t-7 -15h-117q-18 0 -28.5 8.5t-10.5 36.5q-38 -53 -114 -53q-177 0 -177 137q0 149 201 149h7q38 0 57 9t22.5 19.5t3.5 29.5v12q0 110 -95 110q-46 0 -67.5 -18.5t-21.5 -38.5q0 -3 1 -11t1 -12q0 -24 -14.5 -34t-29.5 -10q-9 0 -17.5 3.5t-17 16.5 t-8.5 34q0 34 44 66.5t130 32.5q29 0 56 -5t57 -18.5t48.5 -43t18.5 -72.5v-261q0 -27 13.5 -42t57.5 -15zM217 34q12 0 21.5 1.5t24.5 7t25.5 19t21 34t16 55.5t5.5 81v16h-90q-66 0 -89 -31t-23 -87q0 -30 10 -51t26 -29.5t28 -12t24 -3.5zM175 627q-40 0 -66 -52 q-3 -4 -20 1q-9 3 -13 5t-3 5q1 4 3.5 11.5t11 23.5t19 28t29 22t39.5 10q34 0 76 -29.5t65 -29.5q21 0 37.5 13.5t21.5 23t7 15.5q2 7 20 0q8 -1 13 -4.5t4 -6.5l-2 -6q-2 -6 -6 -14t-9.5 -18.5t-13.5 -20t-18 -18t-24 -13.5t-30 -5q-34 0 -76 29.5t-65 29.5z" />
<glyph unicode="&#xe4;" horiz-adv-x="507" d="M487 30q7 0 7 -15t-7 -15h-117q-18 0 -28.5 8.5t-10.5 36.5q-38 -53 -114 -53q-177 0 -177 137q0 149 201 149h7q38 0 57 9t22.5 19.5t3.5 29.5v12q0 110 -95 110q-46 0 -67.5 -18.5t-21.5 -38.5q0 -3 1 -11t1 -12q0 -24 -14.5 -34t-29.5 -10q-9 0 -17.5 3.5t-17 16.5 t-8.5 34q0 34 44 66.5t130 32.5q29 0 56 -5t57 -18.5t48.5 -43t18.5 -72.5v-261q0 -27 13.5 -42t57.5 -15zM217 34q12 0 21.5 1.5t24.5 7t25.5 19t21 34t16 55.5t5.5 81v16h-90q-66 0 -89 -31t-23 -87q0 -30 10 -51t26 -29.5t28 -12t24 -3.5zM141 571q-55 0 -55 54 q0 52 57 52q53 0 53 -53t-55 -53zM346 571q-56 0 -56 54q0 52 57 52q53 0 53 -53t-54 -53z" />
<glyph unicode="&#xe5;" horiz-adv-x="507" d="M487 30q7 0 7 -15t-7 -15h-117q-18 0 -28.5 8.5t-10.5 36.5q-38 -53 -114 -53q-177 0 -177 137q0 149 201 149h7q38 0 57 9t22.5 19.5t3.5 29.5v12q0 110 -95 110q-46 0 -67.5 -18.5t-21.5 -38.5q0 -3 1 -11t1 -12q0 -24 -14.5 -34t-29.5 -10q-9 0 -17.5 3.5t-17 16.5 t-8.5 34q0 34 44 66.5t130 32.5q29 0 56 -5t57 -18.5t48.5 -43t18.5 -72.5v-261q0 -27 13.5 -42t57.5 -15zM217 34q12 0 21.5 1.5t24.5 7t25.5 19t21 34t16 55.5t5.5 81v16h-90q-66 0 -89 -31t-23 -87q0 -30 10 -51t26 -29.5t28 -12t24 -3.5zM243 706q91 0 91 -86 q0 -83 -91 -83q-94 0 -94 85q0 84 94 84zM243 570q22 0 31.5 11.5t9.5 41.5q0 27 -9.5 38.5t-31.5 11.5t-33 -11t-11 -39q0 -30 10.5 -41.5t33.5 -11.5z" />
<glyph unicode="&#xe6;" horiz-adv-x="791" d="M713 144h4.5t5 -0.5t5 -0.5t4 -0.5t2.5 -1.5t1 -2q-22 -90 -66 -119.5t-119 -29.5q-135 0 -186 99q-38 -98 -144 -98q-176 0 -176 138q0 149 207 149q29 0 47 4.5t25.5 14t9 17t1.5 21.5v13q0 109 -95 109q-48 0 -68.5 -17.5t-20.5 -37.5q0 -5 1 -12.5t1 -11.5 q0 -21 -12.5 -32.5t-31.5 -11.5t-31.5 13.5t-12.5 39.5q0 36 47 68t128 32q104 0 152 -55q52 56 152 56q41 0 72.5 -9.5t62.5 -34t48.5 -75.5t18.5 -126h-236q-47 0 -66 -13t-16 -45q9 -93 38.5 -123.5t84.5 -30.5q54 0 89 21.5t53 86.5q1 5 21 5zM220 32q26 0 45 8.5 t35.5 31t25 66.5t8.5 109h-90q-62 0 -87 -30t-25 -88q0 -49 27.5 -73t60.5 -24zM543 458q-60 0 -86.5 -45.5t-30.5 -138.5h225q-6 94 -28 139t-80 45z" />
<glyph unicode="&#xe7;" horiz-adv-x="469" d="M409 141q20 0 20 -4q-20 -150 -165 -150l-15 -38q16 0 27.5 -1.5t26 -6t20.5 -13.5t10.5 -23.5t-3.5 -36.5q-6 -21 -17 -35t-21 -21t-29 -10t-28 -3.5t-30 -0.5q-18 0 -51 11q-5 3 -5 18q0 5 0.5 9t2 5.5t2.5 1.5q30 -10 56 -10q15 0 23.5 1.5t18 10t14.5 25.5 q13 47 -30 47l-57 -3l33 77q-164 27 -164 246q0 65 15 113.5t37 73.5t53.5 40t55.5 18.5t53 3.5q54 0 104 -17t50 -49v-85q0 -6 -16 -6q-15 0 -15 6q0 56 -34.5 88t-88.5 32q-18 0 -31.5 -3t-31.5 -15.5t-29.5 -34.5t-19.5 -63.5t-8 -98.5q0 -70 11 -116t31.5 -65.5 t38 -25.5t41.5 -6q108 0 125 110q0 4 20 4z" />
<glyph unicode="&#xe8;" horiz-adv-x="497" d="M260 27q54 0 89 21.5t53 87.5q1 5 21 5h6.5t7 -0.5t6.5 -1.5t1 -3q-15 -63 -43.5 -97t-60 -43t-80.5 -9q-218 0 -218 249q0 64 14.5 111.5t35 73t51 41t55.5 19.5t55 4q39 0 69 -8.5t61.5 -32t50.5 -75.5t21 -130h-236q-48 0 -66.5 -13.5t-15.5 -43.5q8 -95 39 -125 t84 -30zM135 270h226q-4 76 -20 118.5t-36.5 55t-51.5 12.5q-51 0 -82 -38.5t-36 -147.5zM275 542l-103 141q-4 4 21 22q25 16 28 12l103 -141q4 -5 -21 -22q-12 -8 -19.5 -11.5t-8.5 -0.5z" />
<glyph unicode="&#xe9;" horiz-adv-x="497" d="M260 27q54 0 89 21.5t53 87.5q1 5 21 5h6.5t7 -0.5t6.5 -1.5t1 -3q-15 -63 -43.5 -97t-60 -43t-80.5 -9q-218 0 -218 249q0 64 14.5 111.5t35 73t51 41t55.5 19.5t55 4q39 0 69 -8.5t61.5 -32t50.5 -75.5t21 -130h-236q-48 0 -66.5 -13.5t-15.5 -43.5q8 -95 39 -125 t84 -30zM135 270h226q-4 76 -20 118.5t-36.5 55t-51.5 12.5q-51 0 -82 -38.5t-36 -147.5zM325 683l-104 -141q-1 -3 -7.5 0t-20.5 12q-25 17 -21 22l103 141q4 5 28 -12q25 -17 22 -22z" />
<glyph unicode="&#xea;" horiz-adv-x="497" d="M260 27q54 0 89 21.5t53 87.5q1 5 21 5h6.5t7 -0.5t6.5 -1.5t1 -3q-15 -63 -43.5 -97t-60 -43t-80.5 -9q-218 0 -218 249q0 64 14.5 111.5t35 73t51 41t55.5 19.5t55 4q39 0 69 -8.5t61.5 -32t50.5 -75.5t21 -130h-236q-48 0 -66.5 -13.5t-15.5 -43.5q8 -95 39 -125 t84 -30zM135 270h226q-4 76 -20 118.5t-36.5 55t-51.5 12.5q-51 0 -82 -38.5t-36 -147.5zM83 576l155 147q12 10 20 0l156 -147q3 -5 -17 -24q-19 -21 -24 -15l-125 117q-121 -115 -124 -118q-3 -4 -25 16q-21 19 -16 24z" />
<glyph unicode="&#xeb;" horiz-adv-x="497" d="M260 27q54 0 89 21.5t53 87.5q1 5 21 5h6.5t7 -0.5t6.5 -1.5t1 -3q-15 -63 -43.5 -97t-60 -43t-80.5 -9q-218 0 -218 249q0 64 14.5 111.5t35 73t51 41t55.5 19.5t55 4q39 0 69 -8.5t61.5 -32t50.5 -75.5t21 -130h-236q-48 0 -66.5 -13.5t-15.5 -43.5q8 -95 39 -125 t84 -30zM135 270h226q-4 76 -20 118.5t-36.5 55t-51.5 12.5q-51 0 -82 -38.5t-36 -147.5zM150 571q-55 0 -55 54q0 52 57 52q53 0 53 -53t-55 -53zM355 571q-56 0 -56 54q0 52 57 52q53 0 53 -53t-54 -53z" />
<glyph unicode="&#xec;" horiz-adv-x="303" d="M270 0h-229q-6 0 -6 16q0 14 6 14q23 0 38 4.5t21 14t8 18t2 20.5v305q0 13 -1.5 21t-8 17.5t-21.5 14t-40 4.5q-5 0 -5 14q0 15 5 15h160v-391q0 -13 2 -21.5t8.5 -17.5t21.5 -13.5t39 -4.5q6 0 6 -14q0 -16 -6 -16zM169 542l-103 141q-4 4 21 22q25 16 28 12l103 -141 q4 -5 -21 -22q-12 -8 -19.5 -11.5t-8.5 -0.5z" />
<glyph unicode="&#xed;" horiz-adv-x="303" d="M270 0h-229q-6 0 -6 16q0 14 6 14q23 0 38 4.5t21 14t8 18t2 20.5v305q0 13 -1.5 21t-8 17.5t-21.5 14t-40 4.5q-5 0 -5 14q0 15 5 15h160v-391q0 -13 2 -21.5t8.5 -17.5t21.5 -13.5t39 -4.5q6 0 6 -14q0 -16 -6 -16zM225 683l-104 -141q-1 -3 -7.5 0t-20.5 12 q-25 17 -21 22l103 141q4 5 28 -12q25 -17 22 -22z" />
<glyph unicode="&#xee;" horiz-adv-x="303" d="M270 0h-229q-6 0 -6 16q0 14 6 14q23 0 38 4.5t21 14t8 18t2 20.5v305q0 13 -1.5 21t-8 17.5t-21.5 14t-40 4.5q-5 0 -5 14q0 15 5 15h160v-391q0 -13 2 -21.5t8.5 -17.5t21.5 -13.5t39 -4.5q6 0 6 -14q0 -16 -6 -16zM-34 576l155 147q12 10 20 0l156 -147q3 -5 -17 -24 q-19 -21 -24 -15l-125 117q-121 -115 -124 -118q-3 -4 -25 16q-21 19 -16 24z" />
<glyph unicode="&#xef;" horiz-adv-x="303" d="M270 0h-229q-6 0 -6 16q0 14 6 14q23 0 38 4.5t21 14t8 18t2 20.5v305q0 13 -1.5 21t-8 17.5t-21.5 14t-40 4.5q-5 0 -5 14q0 15 5 15h160v-391q0 -13 2 -21.5t8.5 -17.5t21.5 -13.5t39 -4.5q6 0 6 -14q0 -16 -6 -16zM43 571q-55 0 -55 54q0 52 57 52q53 0 53 -53 t-55 -53zM248 571q-56 0 -56 54q0 52 57 52q53 0 53 -53t-54 -53z" />
<glyph unicode="&#xf0;" horiz-adv-x="566" d="M247 -8q-30 0 -54.5 4t-53.5 19t-49 40.5t-33.5 72.5t-13.5 112t14.5 112.5t35 72.5t51 40t54 18.5t51.5 3.5q61 0 102 -35q6 -5 13.5 -2t7.5 11v59h-91q-6 0 -6 25t6 25h91v21q0 23 -14 37.5t-57 14.5q-6 0 -6 15t6 15h158v-103h90q7 0 7 -25t-7 -25h-90v-433 q0 -28 14 -43t57 -15q6 0 6 -14q0 -15 -6 -15h-119q-19 0 -29 9t-10 36q-41 -53 -125 -53zM247 21q24 0 42.5 7t39 27.5t32 66.5t11.5 114v160q-52 46 -87 57q-18 5 -35 5q-23 0 -39.5 -7t-34.5 -27.5t-28 -68t-10 -119.5q0 -70 9 -115.5t26 -66t34 -27t40 -6.5z" />
<glyph unicode="&#xf1;" horiz-adv-x="584" d="M264 0h-220q-6 0 -6 15t6 15q24 0 39 4.5t21.5 13.5t8.5 17.5t2 21.5v305q0 28 -14 42t-57 14q-6 0 -6 15t6 15h117q17 0 26.5 -7t11.5 -27q2 -13 11 -4q43 47 103 47q168 0 168 -152v-248q0 -13 2 -21.5t8 -17.5t19.5 -13.5t34.5 -4.5q6 0 6 -15t-6 -15h-217q-5 0 -5 15 t5 15q39 0 51 14.5t12 42.5v236q0 39 -8 64.5t-22.5 36t-26.5 13.5t-29 3q-23 0 -40.5 -6t-31 -21t-18 -21.5t-15.5 -24.5v-280q0 -18 3 -28.5t18 -19.5t43 -9q6 0 6 -15t-6 -15zM221 627q-40 0 -66 -52q-3 -4 -20 1q-9 3 -13 5t-3 5q1 4 3.5 11.5t11 23.5t19 28t29 22 t39.5 10q34 0 76 -29.5t65 -29.5q21 0 37.5 13.5t21.5 23t7 15.5q2 7 20 0q8 -1 13 -4.5t4 -6.5l-2 -6q-2 -6 -6 -14t-9.5 -18.5t-13.5 -20t-18 -18t-24 -13.5t-30 -5q-34 0 -76 29.5t-65 29.5z" />
<glyph unicode="&#xf2;" horiz-adv-x="509" d="M257 485q204 0 204 -251q0 -247 -208 -247q-207 0 -207 249t211 249zM253 17q17 0 30.5 3t30.5 16t28 35.5t18.5 65t7.5 101.5q0 73 -10 120.5t-29 67t-34.5 25t-37.5 5.5q-16 0 -28.5 -2.5t-31 -14.5t-30 -33.5t-20.5 -64t-9 -101.5t7.5 -101.5t18.5 -65.5t27.5 -36 t30 -16.5t31.5 -3.5zM278 542l-103 141q-4 4 21 22q25 16 28 12l103 -141q4 -5 -21 -22q-12 -8 -19.5 -11.5t-8.5 -0.5z" />
<glyph unicode="&#xf3;" horiz-adv-x="509" d="M257 485q204 0 204 -251q0 -247 -208 -247q-207 0 -207 249t211 249zM253 17q17 0 30.5 3t30.5 16t28 35.5t18.5 65t7.5 101.5q0 73 -10 120.5t-29 67t-34.5 25t-37.5 5.5q-16 0 -28.5 -2.5t-31 -14.5t-30 -33.5t-20.5 -64t-9 -101.5t7.5 -101.5t18.5 -65.5t27.5 -36 t30 -16.5t31.5 -3.5zM335 683l-104 -141q-1 -3 -7.5 0t-20.5 12q-25 17 -21 22l103 141q4 5 28 -12q25 -17 22 -22z" />
<glyph unicode="&#xf4;" horiz-adv-x="509" d="M257 485q204 0 204 -251q0 -247 -208 -247q-207 0 -207 249t211 249zM253 17q17 0 30.5 3t30.5 16t28 35.5t18.5 65t7.5 101.5q0 73 -10 120.5t-29 67t-34.5 25t-37.5 5.5q-16 0 -28.5 -2.5t-31 -14.5t-30 -33.5t-20.5 -64t-9 -101.5t7.5 -101.5t18.5 -65.5t27.5 -36 t30 -16.5t31.5 -3.5zM90 576l155 147q12 10 20 0l156 -147q3 -5 -17 -24q-19 -21 -24 -15l-125 117q-121 -115 -124 -118q-3 -4 -25 16q-21 19 -16 24z" />
<glyph unicode="&#xf5;" horiz-adv-x="509" d="M257 485q204 0 204 -251q0 -247 -208 -247q-207 0 -207 249t211 249zM253 17q17 0 30.5 3t30.5 16t28 35.5t18.5 65t7.5 101.5q0 73 -10 120.5t-29 67t-34.5 25t-37.5 5.5q-16 0 -28.5 -2.5t-31 -14.5t-30 -33.5t-20.5 -64t-9 -101.5t7.5 -101.5t18.5 -65.5t27.5 -36 t30 -16.5t31.5 -3.5zM184 627q-40 0 -66 -52q-3 -4 -20 1q-9 3 -13 5t-3 5q1 4 3.5 11.5t11 23.5t19 28t29 22t39.5 10q34 0 76 -29.5t65 -29.5q21 0 37.5 13.5t21.5 23t7 15.5q2 7 20 0q8 -1 13 -4.5t4 -6.5l-2 -6q-2 -6 -6 -14t-9.5 -18.5t-13.5 -20t-18 -18t-24 -13.5 t-30 -5q-34 0 -76 29.5t-65 29.5z" />
<glyph unicode="&#xf6;" horiz-adv-x="509" d="M257 485q204 0 204 -251q0 -247 -208 -247q-207 0 -207 249t211 249zM253 17q17 0 30.5 3t30.5 16t28 35.5t18.5 65t7.5 101.5q0 73 -10 120.5t-29 67t-34.5 25t-37.5 5.5q-16 0 -28.5 -2.5t-31 -14.5t-30 -33.5t-20.5 -64t-9 -101.5t7.5 -101.5t18.5 -65.5t27.5 -36 t30 -16.5t31.5 -3.5zM152 571q-55 0 -55 54q0 52 57 52q53 0 53 -53t-55 -53zM357 571q-56 0 -56 54q0 52 57 52q53 0 53 -53t-54 -53z" />
<glyph unicode="&#xf7;" horiz-adv-x="334" d="M301 248h-268q-6 0 -6 30t6 30h268q6 0 6 -30t-6 -30zM172 392q-55 0 -55 53t57 53q53 0 53 -54q0 -52 -55 -52zM172 54q-55 0 -55 54q0 52 57 52q53 0 53 -53t-55 -53z" />
<glyph unicode="&#xf8;" horiz-adv-x="509" d="M101 -6q-4 -4 -48 -4q-50 0 -46 4l68 85q-31 59 -31 157q0 249 211 249q73 0 121 -33l24 29q2 4 47 4q47 -1 47 -4l-69 -85q34 -60 34 -162q0 -247 -208 -247q-79 0 -128 35q-5 -7 -11 -14t-8 -10zM251 17q17 0 30.5 3t30.5 16t28 35.5t18.5 65t7.5 101.5q0 34 -4 80 l-199 -247q26 -54 88 -54zM136 240q0 -50 4 -81l199 246q-26 51 -84 51q-16 0 -28.5 -2.5t-31 -14.5t-30 -33.5t-20.5 -64t-9 -101.5z" />
<glyph unicode="&#xf9;" horiz-adv-x="582" d="M23 449q-6 0 -6 14q0 15 6 15h161v-320q0 -121 91 -121q42 0 76 30t34 103v221q0 13 -2 21t-8.5 17.5t-21.5 14.5t-39 5q-7 0 -7 14q0 15 7 15h160v-392q0 -12 2 -20.5t8.5 -17.5t21.5 -13.5t39 -4.5q6 0 6 -15t-5 -15h-122q-19 0 -29 9t-10 39q-40 -56 -134 -56 q-157 0 -157 166v233q0 13 -2 21.5t-8.5 17.5t-21.5 14t-39 5zM296 542l-103 141q-4 4 21 22q25 16 28 12l103 -141q4 -5 -21 -22q-12 -8 -19.5 -11.5t-8.5 -0.5z" />
<glyph unicode="&#xfa;" horiz-adv-x="582" d="M23 449q-6 0 -6 14q0 15 6 15h161v-320q0 -121 91 -121q42 0 76 30t34 103v221q0 13 -2 21t-8.5 17.5t-21.5 14.5t-39 5q-7 0 -7 14q0 15 7 15h160v-392q0 -12 2 -20.5t8.5 -17.5t21.5 -13.5t39 -4.5q6 0 6 -15t-5 -15h-122q-19 0 -29 9t-10 39q-40 -56 -134 -56 q-157 0 -157 166v233q0 13 -2 21.5t-8.5 17.5t-21.5 14t-39 5zM367 683l-104 -141q-1 -3 -7.5 0t-20.5 12q-25 17 -21 22l103 141q4 5 28 -12q25 -17 22 -22z" />
<glyph unicode="&#xfb;" horiz-adv-x="582" d="M23 449q-6 0 -6 14q0 15 6 15h161v-320q0 -121 91 -121q42 0 76 30t34 103v221q0 13 -2 21t-8.5 17.5t-21.5 14.5t-39 5q-7 0 -7 14q0 15 7 15h160v-392q0 -12 2 -20.5t8.5 -17.5t21.5 -13.5t39 -4.5q6 0 6 -15t-5 -15h-122q-19 0 -29 9t-10 39q-40 -56 -134 -56 q-157 0 -157 166v233q0 13 -2 21.5t-8.5 17.5t-21.5 14t-39 5zM110 576l155 147q12 10 20 0l156 -147q3 -5 -17 -24q-19 -21 -24 -15l-125 117q-121 -115 -124 -118q-3 -4 -25 16q-21 19 -16 24z" />
<glyph unicode="&#xfc;" horiz-adv-x="582" d="M23 449q-6 0 -6 14q0 15 6 15h161v-320q0 -121 91 -121q42 0 76 30t34 103v221q0 13 -2 21t-8.5 17.5t-21.5 14.5t-39 5q-7 0 -7 14q0 15 7 15h160v-392q0 -12 2 -20.5t8.5 -17.5t21.5 -13.5t39 -4.5q6 0 6 -15t-5 -15h-122q-19 0 -29 9t-10 39q-40 -56 -134 -56 q-157 0 -157 166v233q0 13 -2 21.5t-8.5 17.5t-21.5 14t-39 5zM175 571q-55 0 -55 54q0 52 57 52q53 0 53 -53t-55 -53zM380 571q-56 0 -56 54q0 52 57 52q53 0 53 -53t-54 -53z" />
<glyph unicode="&#xfd;" horiz-adv-x="535" d="M20 448q-5 0 -5 15t5 15h212q5 0 5 -15t-5 -15q-26 0 -36.5 -8.5t-10 -19t6.5 -27.5q12 -33 46 -131t48 -133q2 -6 8.5 -6t9.5 7l103 263q13 23 6.5 39t-41.5 16q-5 0 -5 15t5 15h152q6 0 6 -15t-6 -15q-36 0 -53 -15t-27 -41l-203 -512q-13 -35 -36 -51t-45.5 -18.5 t-74.5 -2.5q-6 0 -6 21t6 21q29 0 43 1t32 5t28 14.5t17 27.5l39 102q-134 356 -147 391q-10 28 -27 42.5t-50 14.5zM353 683l-104 -141q-1 -3 -7.5 0t-20.5 12q-25 17 -21 22l103 141q4 5 28 -12q25 -17 22 -22z" />
<glyph unicode="&#xfe;" horiz-adv-x="567" d="M331 487q30 0 53.5 -3.5t53 -18.5t49.5 -40.5t34 -73.5t14 -114q0 -55 -9.5 -97.5t-27 -68t-37 -43t-45 -25.5t-45 -10.5t-42.5 -2.5q-60 0 -103 36q-5 4 -12.5 1t-7.5 -11v-122q0 -27 14 -41.5t57 -14.5q6 0 6 -15t-6 -15h-229q-6 0 -6 15t6 15q24 0 39 4.5t21.5 13.5 t8.5 17t2 21v692q0 13 -2 21.5t-8.5 17.5t-21.5 13.5t-39 4.5q-6 0 -6 15t6 15h120q38 0 38 -45v-195q43 54 125 54zM328 19q23 0 40.5 7.5t35 29t27 68.5t9.5 117q0 58 -7 99.5t-17 63.5t-26 35t-29 16t-30 3q-24 0 -42.5 -7t-39 -28t-32 -67.5t-11.5 -116.5v-157 q66 -63 122 -63z" />
<glyph unicode="&#xff;" horiz-adv-x="535" d="M20 448q-5 0 -5 15t5 15h212q5 0 5 -15t-5 -15q-26 0 -36.5 -8.5t-10 -19t6.5 -27.5q12 -33 46 -131t48 -133q2 -6 8.5 -6t9.5 7l103 263q13 23 6.5 39t-41.5 16q-5 0 -5 15t5 15h152q6 0 6 -15t-6 -15q-36 0 -53 -15t-27 -41l-203 -512q-13 -35 -36 -51t-45.5 -18.5 t-74.5 -2.5q-6 0 -6 21t6 21q29 0 43 1t32 5t28 14.5t17 27.5l39 102q-134 356 -147 391q-10 28 -27 42.5t-50 14.5zM169 571q-55 0 -55 54q0 52 57 52q53 0 53 -53t-55 -53zM374 571q-56 0 -56 54q0 52 57 52q53 0 53 -53t-54 -53z" />
<glyph unicode="&#x152;" horiz-adv-x="921" d="M861 139q16 0 16 -6l-17 -125q-2 -8 -10 -8h-367v44q-57 -52 -163 -52q-27 0 -46.5 1.5t-49 9t-51 20.5t-45 38.5t-38.5 61t-25 90t-10 123.5q0 68 9.5 122.5t24.5 90t38 61.5t44.5 39.5t51 21t50 9t47.5 1.5q105 0 163 -53v45h359q9 0 9 -8q1 -3 9 -63t8 -62 q0 -6 -15 -6t-16 6q-14 59 -31.5 80t-46.5 21h-137q-44 0 -44 -57v-218h141q13 0 21.5 2t18.5 8.5t15 22t5 39.5q0 6 15 6t15 -6v-177q0 -5 -15 -5t-15 5q0 45 -16.5 59t-43.5 14h-88q-25 0 -39 -15.5t-14 -63.5v-166q0 -28 9 -42.5t35 -14.5h146q28 0 46.5 20t31.5 81 q2 6 15 6zM320 24q26 0 44 3.5t42.5 20.5t39 48.5t25.5 92.5t11 147q0 85 -10.5 146t-25 92.5t-38.5 49.5t-42.5 21.5t-45.5 3.5t-45 -3.5t-42.5 -21t-39 -49t-25 -92.5t-10.5 -147q0 -85 11 -146t26.5 -92t40 -49t42 -21.5t42.5 -3.5z" />
<glyph unicode="&#x153;" horiz-adv-x="823" d="M746 144h8.5t6.5 -0.5t4.5 -1.5t1.5 -2q-12 -51 -31.5 -83t-47 -45.5t-49.5 -17.5t-56 -4q-115 0 -170 71q-53 -71 -163 -71q-208 0 -208 249t212 249q108 0 158 -69q52 69 163 69q28 0 51 -4t52 -18.5t49 -39.5t34.5 -72t15.5 -111h-239q-42 0 -62 -12t-17 -45 q5 -52 16.5 -85t30.5 -47.5t35.5 -18.5t41.5 -4q55 0 89.5 22.5t52.5 86.5q0 4 21 4zM250 19q25 0 43.5 8.5t36 30.5t26.5 67.5t9 113.5q0 90 -16.5 140.5t-38.5 65t-56 14.5q-25 0 -44 -7.5t-37 -29t-28 -66.5t-10 -113q0 -69 9 -115t26.5 -69t36 -31.5t43.5 -8.5zM575 459 q-49 0 -80.5 -38t-36.5 -147h226q-3 59 -12.5 97.5t-25.5 57t-32 24.5t-39 6z" />
<glyph unicode="&#x178;" horiz-adv-x="639" d="M451 0h-261q-5 0 -5 16q0 14 5 14q29 0 47 4.5t25.5 14t9.5 17.5t2 21v206q-139 262 -156 294q-29 57 -101 57q-7 0 -7 14q0 15 7 15h255q6 0 6 -15q0 -14 -6 -14q-34 0 -48 -9.5t-12 -20.5t11 -27l121 -225q3 -7 10.5 -7t11.5 7l120 225q17 24 8 40.5t-56 16.5 q-6 0 -6 14q0 15 6 15h188q6 0 6 -15q0 -14 -6 -14q-44 0 -65.5 -15t-35.5 -42q-21 -37 -80 -150t-77 -144v-206q0 -17 4 -27.5t23.5 -20t55.5 -9.5q6 0 6 -14q0 -16 -6 -16zM224 766q-55 0 -55 54q0 52 57 52q53 0 53 -53t-55 -53zM429 766q-56 0 -56 54q0 52 57 52 q53 0 53 -53t-54 -53z" />
<glyph unicode="&#x2c6;" d="M100 576l155 147q12 10 20 0l156 -147q3 -5 -17 -24q-19 -21 -24 -15l-125 117q-121 -115 -124 -118q-3 -4 -25 16q-21 19 -16 24z" />
<glyph unicode="&#x2dc;" d="M195 627q-40 0 -66 -52q-3 -4 -20 1q-9 3 -13 5t-3 5q1 4 3.5 11.5t11 23.5t19 28t29 22t39.5 10q34 0 76 -29.5t65 -29.5q21 0 37.5 13.5t21.5 23t7 15.5q2 7 20 0q8 -1 13 -4.5t4 -6.5l-2 -6q-2 -6 -6 -14t-9.5 -18.5t-13.5 -20t-18 -18t-24 -13.5t-30 -5 q-34 0 -76 29.5t-65 29.5z" />
<glyph unicode="&#x2000;" horiz-adv-x="461" />
<glyph unicode="&#x2001;" horiz-adv-x="923" />
<glyph unicode="&#x2002;" horiz-adv-x="461" />
<glyph unicode="&#x2003;" horiz-adv-x="923" />
<glyph unicode="&#x2004;" horiz-adv-x="307" />
<glyph unicode="&#x2005;" horiz-adv-x="230" />
<glyph unicode="&#x2006;" horiz-adv-x="153" />
<glyph unicode="&#x2007;" horiz-adv-x="153" />
<glyph unicode="&#x2008;" horiz-adv-x="115" />
<glyph unicode="&#x2009;" horiz-adv-x="184" />
<glyph unicode="&#x200a;" horiz-adv-x="51" />
<glyph unicode="&#x2010;" horiz-adv-x="365" d="M317 276h-268q-7 0 -7 30t7 30h268q6 0 6 -30t-6 -30z" />
<glyph unicode="&#x2011;" horiz-adv-x="365" d="M317 276h-268q-7 0 -7 30t7 30h268q6 0 6 -30t-6 -30z" />
<glyph unicode="&#x2012;" horiz-adv-x="365" d="M317 276h-268q-7 0 -7 30t7 30h268q6 0 6 -30t-6 -30z" />
<glyph unicode="&#x2013;" horiz-adv-x="418" d="M370 276h-321q-7 0 -7 30t7 30h321q6 0 6 -30t-6 -30z" />
<glyph unicode="&#x2014;" horiz-adv-x="524" d="M476 276h-427q-7 0 -7 30t7 30h427q6 0 6 -30t-6 -30z" />
<glyph unicode="&#x2018;" horiz-adv-x="210" d="M106 503q-25 0 -39 14.5t-14 57.5q0 15 4 30t10.5 26.5t14 23t13.5 18.5t11 13l6 5q4 4 20 -2q8 -3 13 -6t4 -5q-39 -39 -29 -81q36 -6 36 -47q0 -47 -50 -47z" />
<glyph unicode="&#x2019;" horiz-adv-x="210" d="M104 689q25 0 39 -15t14 -58q0 -55 -60 -115q-3 -5 -20 1q-4 2 -6.5 3t-5.5 3t-4 3.5t0 2.5l3 4q3 3 7 8t8.5 13t7.5 16.5t4.5 19t-1.5 20.5q-37 4 -37 46q0 48 51 48z" />
<glyph unicode="&#x201a;" horiz-adv-x="210" d="M104 94q25 0 39 -15t14 -57q0 -15 -4.5 -30t-10.5 -26.5t-14 -23t-14 -18.5t-12 -12l-5 -6q-3 -4 -20 2q-7 3 -12 6t-4 5l3 3q3 4 7 9.5t8.5 13t7.5 16t4.5 19t-1.5 20.5q-37 6 -37 47q0 47 51 47z" />
<glyph unicode="&#x201c;" horiz-adv-x="361" d="M106 503q-25 0 -39 14.5t-14 57.5q0 15 4 30t10.5 26.5t14 23t13.5 18.5t11 13l6 5q4 4 20 -2q8 -3 13 -6t4 -5q-39 -39 -29 -81q36 -6 36 -47q0 -47 -50 -47zM250 503q-25 0 -39 15t-14 57q0 15 4.5 30t10.5 26.5t14 23t14 18.5t12 13l5 5q3 4 19 -2q8 -3 13 -6t4 -5 q-39 -39 -29 -81q37 -6 37 -47q0 -47 -51 -47z" />
<glyph unicode="&#x201d;" horiz-adv-x="353" d="M104 689q25 0 39 -15t14 -58q0 -55 -60 -115q-3 -5 -20 1q-4 2 -6.5 3t-5.5 3t-4 3.5t0 2.5l3 4q3 3 7 8t8.5 13t7.5 16.5t4.5 19t-1.5 20.5q-37 4 -37 46q0 48 51 48zM248 689q25 0 38.5 -15t13.5 -58q0 -57 -58 -115q-5 -5 -21 1q-4 2 -6.5 3t-5.5 3t-4 3.5t0 2.5l3 4 q3 3 7 8t8.5 13t7.5 16.5t4.5 19t-1.5 20.5q-37 4 -37 46q0 48 51 48z" />
<glyph unicode="&#x201e;" horiz-adv-x="353" d="M104 94q25 0 39 -15t14 -57q0 -15 -4.5 -30t-10.5 -26.5t-14 -23t-14 -18.5t-12 -12l-5 -6q-3 -4 -20 2q-7 3 -12 6t-4 5l3 3q3 4 7 9.5t8.5 13t7.5 16t4.5 19t-1.5 20.5q-37 6 -37 47q0 47 51 47zM248 94q25 0 38.5 -14.5t13.5 -57.5q0 -15 -4 -30t-10 -26.5t-14 -23 t-14 -18.5t-11 -12l-5 -6q-4 -4 -21 2q-7 3 -12 6t-4 5l3 3q3 4 7 9.5t8.5 13t7.5 16t4.5 19t-1.5 20.5q-37 6 -37 47q0 47 51 47z" />
<glyph unicode="&#x2022;" horiz-adv-x="327" d="M164 235q-82 0 -82 79q0 78 84 78q79 0 79 -79q0 -78 -81 -78z" />
<glyph unicode="&#x2026;" horiz-adv-x="664" d="M111 -10q-58 0 -58 57q0 55 59 55q56 0 56 -56t-57 -56zM332 -10q-58 0 -58 57q0 55 59 55q56 0 56 -56t-57 -56zM553 -10q-58 0 -58 57q0 55 59 55q57 0 57 -56t-58 -56z" />
<glyph unicode="&#x202f;" horiz-adv-x="184" />
<glyph unicode="&#x2039;" horiz-adv-x="338" d="M234 103l-176 187q-10 10 0 20l176 177q4 4 24 -14q20 -19 15 -24l-147 -149q144 -157 147 -159q5 -5 -15 -24q-20 -18 -24 -14z" />
<glyph unicode="&#x203a;" horiz-adv-x="338" d="M104 487q1 -2 86 -92t90 -95q9 -9 0 -20l-176 -177q-5 -5 -24 14q-20 19 -15 24l147 149q-145 157 -148 159q-3 5 16 24q20 18 24 14z" />
<glyph unicode="&#x205f;" horiz-adv-x="230" />
<glyph unicode="&#x20ac;" horiz-adv-x="640" d="M574 185q20 0 20 -4q-19 -191 -227 -191q-37 0 -66.5 3.5t-67.5 18.5t-65 41t-50.5 74t-32.5 114h-89q-7 0 -7 30t7 30h84q-1 11 -1 36q0 24 1 36h-84q-7 0 -7 30t7 30h89q9 66 32.5 114t50.5 73.5t65.5 40.5t67.5 18.5t66 3.5q87 0 148.5 -22t61.5 -56v-103q0 -6 -15 -6 q-14 0 -14 6q0 42 -18 73t-47.5 46.5t-58 22.5t-57.5 7q-23 0 -40.5 -2.5t-42.5 -15t-42.5 -34.5t-33.5 -64.5t-22 -101.5h181q6 0 6 -30t-6 -30h-185q0 -6 -0.5 -18t-0.5 -18q0 -7 0.5 -19t0.5 -17h185q6 0 6 -30t-6 -30h-179q15 -112 64.5 -157t114.5 -45q35 0 61.5 5 t54 19t45.5 43.5t25 74.5q1 4 21 4z" />
<glyph unicode="&#x2122;" horiz-adv-x="919" d="M508 269h-120q-4 0 -4 9t4 9q27 0 37 8.5t12 25.5q3 80 16 300q0 8 -1 12.5t-5 10t-14.5 8.5t-26.5 3q-3 0 -3 10q0 8 3 8h107q4 0 7 -4q1 -4 54 -137t55 -136q2 -4 5 -4t5 4q13 32 55 138t54 135q1 4 7 4h97q3 0 3 -8q0 -10 -3 -10q-25 0 -32.5 -8.5t-7.5 -25.5 q0 -7 4 -149t4 -151q1 -11 3.5 -17.5t13.5 -11.5t31 -5q4 0 4 -9t-4 -9h-155q-4 0 -4 9t4 9q29 0 39.5 8.5t10.5 25.5q0 13 -3 155t-3 143q0 11 -5 1q-17 -39 -67 -168t-59 -152q-3 -3 -10 -3q-10 0 -12 3q-1 2 -62.5 160.5t-62.5 161.5q-2 4 -3.5 4t-1.5 -5q0 -3 -3.5 -74 t-7.5 -145.5t-4 -80.5q-1 -17 8 -25.5t41 -8.5q3 0 3 -9t-3 -9zM284 269h-157q-3 0 -3 9t3 9q22 0 34 5.5t14.5 11.5t2.5 17v286q0 21 -5.5 32t-12 13t-18.5 2h-29q-17 0 -27.5 -11.5t-19.5 -49.5q-1 -3 -9 -3q-9 0 -9 3t4.5 38.5t5.5 36.5q2 5 6 5h287q4 0 6 -4q1 -2 5 -38 t4 -38q1 -1 -2 -2t-6 -1q-9 0 -10 3q-9 36 -19 48.5t-28 12.5h-30q-12 0 -18.5 -2t-12 -13t-5.5 -32v-286q0 -10 2 -16t13.5 -12t33.5 -6q4 0 4 -9t-4 -9z" />
<glyph unicode="&#x25fc;" horiz-adv-x="480" d="M0 480h480v-480h-480v480z" />
</font>
</defs>
</svg>
